<?xml version="1.0" encoding="UTF-8" standalone="no"?>
<!DOCTYPE svg PUBLIC "-//W3C//DTD SVG 1.1//EN"
 "http://www.w3.org/Graphics/SVG/1.1/DTD/svg11.dtd">
<!-- Generated by graphviz version 2.42.4 (0)
 -->
<!-- Title: G Pages: 1 -->
<svg width="906pt" height="1453pt"
 viewBox="0.00 0.00 905.50 1453.00" xmlns="http://www.w3.org/2000/svg" xmlns:xlink="http://www.w3.org/1999/xlink">
<g id="graph0" class="graph" transform="scale(1 1) rotate(0) translate(18 1435)">
<title>G</title>
<polygon fill="white" stroke="transparent" points="-18,18 -18,-1435 887.5,-1435 887.5,18 -18,18"/>
<text text-anchor="middle" x="434.75" y="-1393.8" font-family="Noto Sans CJK KR" font-size="24.00">Store 저장·병합·조회 단계 상세 — get → merge → put → search/get</text>
<!-- Extracted -->
<g id="node1" class="node">
<title>Extracted</title>
<path fill="#1e1e1e" stroke="#6a9955" stroke-width="2" d="M211,-1364.5C211,-1364.5 20,-1364.5 20,-1364.5 14,-1364.5 8,-1358.5 8,-1352.5 8,-1352.5 8,-1338.5 8,-1338.5 8,-1332.5 14,-1326.5 20,-1326.5 20,-1326.5 211,-1326.5 211,-1326.5 217,-1326.5 223,-1332.5 223,-1338.5 223,-1338.5 223,-1352.5 223,-1352.5 223,-1358.5 217,-1364.5 211,-1364.5"/>
<text text-anchor="start" x="20" y="-1348.7" font-family="Noto Sans Mono CJK KR" font-size="11.00" fill="#b5cea8">extracted : People</text>
<text text-anchor="start" x="20" y="-1336.7" font-family="Noto Sans Mono CJK KR" font-size="11.00" fill="#b5cea8">└─ extracted.people : list[Person]</text>
</g>
<!-- Loop -->
<g id="node3" class="node">
<title>Loop</title>
<path fill="#1e1e1e" stroke="#ce9178" stroke-width="2" d="M197,-1249C197,-1249 34,-1249 34,-1249 28,-1249 22,-1243 22,-1237 22,-1237 22,-1223 22,-1223 22,-1217 28,-1211 34,-1211 34,-1211 197,-1211 197,-1211 203,-1211 209,-1217 209,-1223 209,-1223 209,-1237 209,-1237 209,-1243 203,-1249 197,-1249"/>
<text text-anchor="start" x="34" y="-1233.2" font-family="Noto Sans Mono CJK KR" font-size="11.00" fill="#ce9178">for person in extracted.people:</text>
<text text-anchor="start" x="34" y="-1221.2" font-family="Noto Sans Mono CJK KR" font-size="11.00" fill="#ce9178"> &#160;&#160;&#160;upsert_person(person)</text>
</g>
<!-- Extracted&#45;&gt;Loop -->
<g id="edge1" class="edge">
<title>Extracted&#45;&gt;Loop</title>
<path fill="none" stroke="#ce9178" stroke-width="2.4" d="M115.5,-1326.26C115.5,-1307.65 115.5,-1278.56 115.5,-1257.43"/>
<polygon fill="#ce9178" stroke="#ce9178" stroke-width="2.4" points="118.3,-1257.19 115.5,-1249.19 112.7,-1257.19 118.3,-1257.19"/>
<text text-anchor="middle" x="147" y="-1276" font-family="Noto Sans CJK KR" font-size="10.00" fill="#ce9178">1. Person 목록</text>
</g>
<!-- StoreInit -->
<g id="node2" class="node">
<title>StoreInit</title>
<path fill="#1e1e1e" stroke="#4ec9b0" stroke-width="2" d="M549,-1383C549,-1383 296,-1383 296,-1383 290,-1383 284,-1377 284,-1371 284,-1371 284,-1320 284,-1320 284,-1314 290,-1308 296,-1308 296,-1308 549,-1308 549,-1308 555,-1308 561,-1314 561,-1320 561,-1320 561,-1371 561,-1371 561,-1377 555,-1383 549,-1383"/>
<text text-anchor="start" x="296" y="-1367.2" font-family="Noto Sans Mono CJK KR" font-size="11.00" fill="#4ec9b0">from langgraph.store.memory import InMemoryStore</text>
<text text-anchor="start" x="296" y="-1342.2" font-family="Noto Sans Mono CJK KR" font-size="11.00" fill="#4ec9b0">entity_store = InMemoryStore()</text>
<text text-anchor="start" x="296" y="-1330.2" font-family="Noto Sans Mono CJK KR" font-size="11.00" fill="#4ec9b0">user_id = &quot;user&#45;123&quot;</text>
<text text-anchor="start" x="296" y="-1318.2" font-family="Noto Sans Mono CJK KR" font-size="11.00" fill="#4ec9b0">namespace = (&quot;users&quot;, user_id, &quot;entities&quot;)</text>
</g>
<!-- Func -->
<g id="node4" class="node">
<title>Func</title>
<path fill="#1e1e1e" stroke="#4ec9b0" stroke-width="2" d="M375,-1152C375,-1152 12,-1152 12,-1152 6,-1152 0,-1146 0,-1140 0,-1140 0,-1090 0,-1090 0,-1084 6,-1078 12,-1078 12,-1078 375,-1078 375,-1078 381,-1078 387,-1084 387,-1090 387,-1090 387,-1140 387,-1140 387,-1146 381,-1152 375,-1152"/>
<text text-anchor="start" x="12" y="-1136.2" font-family="Noto Sans Mono CJK KR" font-size="11.00" fill="#4ec9b0">def upsert_person(person: Person) &#45;&gt; None:</text>
<text text-anchor="start" x="12" y="-1124.2" font-family="Noto Sans Mono CJK KR" font-size="11.00" fill="#4ec9b0"> &#160;&#160;&#160;new_value = person.model_dump(exclude_none=True)</text>
<text text-anchor="start" x="12" y="-1112.2" font-family="Noto Sans Mono CJK KR" font-size="11.00" fill="#4ec9b0"> &#160;&#160;&#160;current = entity_store.get(namespace, person.name)</text>
<text text-anchor="start" x="12" y="-1100.2" font-family="Noto Sans Mono CJK KR" font-size="11.00" fill="#4ec9b0"> &#160;&#160;&#160;merged = {**current.value, **new_value} if current else new_value</text>
<text text-anchor="start" x="12" y="-1088.2" font-family="Noto Sans Mono CJK KR" font-size="11.00" fill="#4ec9b0"> &#160;&#160;&#160;entity_store.put(namespace, person.name, merged)</text>
</g>
<!-- StoreInit&#45;&gt;Func -->
<g id="edge3" class="edge">
<title>StoreInit&#45;&gt;Func</title>
<path fill="none" stroke="#4ec9b0" stroke-width="2.4" d="M374.53,-1307.85C339.28,-1280.92 297.5,-1249 297.5,-1249 297.5,-1249 252.5,-1176 252.5,-1176 252.5,-1176 244.74,-1168.11 234.86,-1158.06"/>
<polygon fill="#4ec9b0" stroke="#4ec9b0" stroke-width="2.4" points="236.79,-1156.03 229.18,-1152.29 232.79,-1159.95 236.79,-1156.03"/>
<text text-anchor="middle" x="362" y="-1227.5" font-family="Noto Sans CJK KR" font-size="10.00" fill="#4ec9b0">3. Store와 namespace 의존성</text>
</g>
<!-- GetCurrent -->
<g id="node6" class="node">
<title>GetCurrent</title>
<path fill="#1e1e1e" stroke="#ce9178" stroke-width="2" d="M489,-897C489,-897 226,-897 226,-897 220,-897 214,-891 214,-885 214,-885 214,-873 214,-873 214,-867 220,-861 226,-861 226,-861 489,-861 489,-861 495,-861 501,-867 501,-873 501,-873 501,-885 501,-885 501,-891 495,-897 489,-897"/>
<text text-anchor="start" x="226" y="-876.2" font-family="Noto Sans Mono CJK KR" font-size="11.00" fill="#ce9178">current = entity_store.get(namespace, person.name)</text>
</g>
<!-- StoreInit&#45;&gt;GetCurrent -->
<g id="edge6" class="edge">
<title>StoreInit&#45;&gt;GetCurrent</title>
<path fill="none" stroke="#4ec9b0" stroke-width="1.6" stroke-dasharray="1,5" d="M431.84,-1307.96C440.31,-1274.78 451.5,-1231 451.5,-1231 451.5,-1231 451.5,-1231 451.5,-986.5 451.5,-986.5 426.5,-921 426.5,-921 426.5,-921 410.25,-911.34 393.52,-901.4"/>
<polygon fill="#4ec9b0" stroke="#4ec9b0" stroke-width="1.6" points="394.67,-898.83 386.36,-897.15 391.81,-903.64 394.67,-898.83"/>
<text text-anchor="middle" x="510.5" y="-1112.5" font-family="Noto Sans CJK KR" font-size="10.00" fill="#4ec9b0">namespace + entity_store</text>
</g>
<!-- Loop&#45;&gt;Func -->
<g id="edge2" class="edge">
<title>Loop&#45;&gt;Func</title>
<path fill="none" stroke="#ce9178" stroke-width="2.4" d="M122.73,-1210.76C128.8,-1195.43 136.5,-1176 136.5,-1176 136.5,-1176 143.85,-1168.26 153.28,-1158.34"/>
<polygon fill="#ce9178" stroke="#ce9178" stroke-width="2.4" points="155.55,-1160.01 159.03,-1152.29 151.49,-1156.16 155.55,-1160.01"/>
<text text-anchor="middle" x="192.5" y="-1179" font-family="Noto Sans CJK KR" font-size="10.00" fill="#ce9178">2. 각 person마다 함수 호출</text>
</g>
<!-- Dump -->
<g id="node5" class="node">
<title>Dump</title>
<path fill="#1e1e1e" stroke="#444444" stroke-width="2" d="M373,-1019C373,-1019 120,-1019 120,-1019 114,-1019 108,-1013 108,-1007 108,-1007 108,-968 108,-968 108,-962 114,-956 120,-956 120,-956 373,-956 373,-956 379,-956 385,-962 385,-968 385,-968 385,-1007 385,-1007 385,-1013 379,-1019 373,-1019"/>
<text text-anchor="start" x="120" y="-1003.2" font-family="Noto Sans Mono CJK KR" font-size="11.00" fill="#d4d4d4">new_value = person.model_dump(exclude_none=True)</text>
<text text-anchor="start" x="120" y="-978.2" font-family="Noto Sans Mono CJK KR" font-size="11.00" fill="#d4d4d4">Pydantic Person 객체</text>
<text text-anchor="start" x="120" y="-966.2" font-family="Noto Sans Mono CJK KR" font-size="11.00" fill="#d4d4d4">→ None 필드를 제외한 dict</text>
</g>
<!-- Func&#45;&gt;Dump -->
<g id="edge4" class="edge">
<title>Func&#45;&gt;Dump</title>
<path fill="none" stroke="#4ec9b0" stroke-width="2.4" d="M208.83,-1077.7C215.56,-1061.77 223.46,-1043.07 230.28,-1026.91"/>
<polygon fill="#4ec9b0" stroke="#4ec9b0" stroke-width="2.4" points="233,-1027.66 233.53,-1019.2 227.84,-1025.48 233,-1027.66"/>
<text text-anchor="middle" x="270.5" y="-1046" font-family="Noto Sans CJK KR" font-size="10.00" fill="#4ec9b0">4&#45;A. Pydantic → dict</text>
</g>
<!-- Dump&#45;&gt;GetCurrent -->
<g id="edge5" class="edge">
<title>Dump&#45;&gt;GetCurrent</title>
<path fill="none" stroke="#444444" stroke-width="2.4" d="M278.31,-955.98C295.84,-939.16 317.26,-918.61 333.39,-903.13"/>
<polygon fill="#444444" stroke="#444444" stroke-width="2.4" points="335.69,-904.81 339.52,-897.25 331.81,-900.77 335.69,-904.81"/>
<text text-anchor="middle" x="365.5" y="-924" font-family="Noto Sans CJK KR" font-size="10.00" fill="#444444">4&#45;B. 같은 name key 조회</text>
</g>
<!-- Branch -->
<g id="node7" class="node">
<title>Branch</title>
<polygon fill="#1e1e1e" stroke="#dcdcaa" stroke-width="2" points="357.5,-812 227.5,-786 357.5,-760 487.5,-786 357.5,-812"/>
<text text-anchor="start" x="256.92" y="-783.2" font-family="Noto Sans Mono CJK KR" font-size="11.00" fill="#dcdcaa">current가 존재하는가?</text>
</g>
<!-- GetCurrent&#45;&gt;Branch -->
<g id="edge7" class="edge">
<title>GetCurrent&#45;&gt;Branch</title>
<path fill="none" stroke="#333333" stroke-width="1.6" d="M357.5,-860.88C357.5,-849.54 357.5,-834.28 357.5,-820.58"/>
<polygon fill="#333333" stroke="#333333" stroke-width="1.6" points="360.3,-820.29 357.5,-812.29 354.7,-820.29 360.3,-820.29"/>
</g>
<!-- MergeExisting -->
<g id="node8" class="node">
<title>MergeExisting</title>
<path fill="#1e1e1e" stroke="#444444" stroke-width="2" d="M357,-701C357,-701 152,-701 152,-701 146,-701 140,-695 140,-689 140,-689 140,-638 140,-638 140,-632 146,-626 152,-626 152,-626 357,-626 357,-626 363,-626 369,-632 369,-638 369,-638 369,-689 369,-689 369,-695 363,-701 357,-701"/>
<text text-anchor="start" x="152" y="-685.2" font-family="Noto Sans Mono CJK KR" font-size="11.00" fill="#d4d4d4">merged = {**current.value, **new_value}</text>
<text text-anchor="start" x="152" y="-660.2" font-family="Noto Sans Mono CJK KR" font-size="11.00" fill="#d4d4d4">기존 dict를 먼저 펼치고</text>
<text text-anchor="start" x="152" y="-648.2" font-family="Noto Sans Mono CJK KR" font-size="11.00" fill="#d4d4d4">new_value를 뒤에 펼치므로</text>
<text text-anchor="start" x="152" y="-636.2" font-family="Noto Sans Mono CJK KR" font-size="11.00" fill="#d4d4d4">같은 key는 새 값이 덮어씀</text>
</g>
<!-- Branch&#45;&gt;MergeExisting -->
<g id="edge8" class="edge">
<title>Branch&#45;&gt;MergeExisting</title>
<path fill="none" stroke="#6a9955" stroke-width="2.4" d="M339.09,-763.46C325.88,-748.01 307.64,-726.67 291.48,-707.77"/>
<polygon fill="#6a9955" stroke="#6a9955" stroke-width="2.4" points="293.42,-705.72 286.09,-701.46 289.16,-709.36 293.42,-705.72"/>
<text text-anchor="middle" x="323" y="-728" font-family="Noto Sans CJK KR" font-size="10.00" fill="#6a9955">Yes</text>
</g>
<!-- MergeNew -->
<g id="node9" class="node">
<title>MergeNew</title>
<path fill="#1e1e1e" stroke="#444444" stroke-width="2" d="M508,-681.5C508,-681.5 413,-681.5 413,-681.5 407,-681.5 401,-675.5 401,-669.5 401,-669.5 401,-657.5 401,-657.5 401,-651.5 407,-645.5 413,-645.5 413,-645.5 508,-645.5 508,-645.5 514,-645.5 520,-651.5 520,-657.5 520,-657.5 520,-669.5 520,-669.5 520,-675.5 514,-681.5 508,-681.5"/>
<text text-anchor="start" x="413" y="-660.7" font-family="Noto Sans Mono CJK KR" font-size="11.00" fill="#d4d4d4">merged = new_value</text>
</g>
<!-- Branch&#45;&gt;MergeNew -->
<g id="edge9" class="edge">
<title>Branch&#45;&gt;MergeNew</title>
<path fill="none" stroke="#ce9178" stroke-width="2.4" d="M375.91,-763.46C394.14,-742.14 421.94,-709.61 440.65,-687.72"/>
<polygon fill="#ce9178" stroke="#ce9178" stroke-width="2.4" points="442.84,-689.48 445.9,-681.57 438.58,-685.84 442.84,-689.48"/>
<text text-anchor="middle" x="412.5" y="-728" font-family="Noto Sans CJK KR" font-size="10.00" fill="#ce9178">No</text>
</g>
<!-- Put -->
<g id="node10" class="node">
<title>Put</title>
<path fill="#1e1e1e" stroke="#ce9178" stroke-width="2" d="M401.5,-577C401.5,-577 311.5,-577 311.5,-577 305.5,-577 299.5,-571 299.5,-565 299.5,-565 299.5,-515 299.5,-515 299.5,-509 305.5,-503 311.5,-503 311.5,-503 401.5,-503 401.5,-503 407.5,-503 413.5,-509 413.5,-515 413.5,-515 413.5,-565 413.5,-565 413.5,-571 407.5,-577 401.5,-577"/>
<text text-anchor="start" x="311.5" y="-561.2" font-family="Noto Sans Mono CJK KR" font-size="11.00" fill="#ce9178">entity_store.put(</text>
<text text-anchor="start" x="311.5" y="-549.2" font-family="Noto Sans Mono CJK KR" font-size="11.00" fill="#ce9178"> &#160;&#160;&#160;namespace,</text>
<text text-anchor="start" x="311.5" y="-537.2" font-family="Noto Sans Mono CJK KR" font-size="11.00" fill="#ce9178"> &#160;&#160;&#160;person.name,</text>
<text text-anchor="start" x="311.5" y="-525.2" font-family="Noto Sans Mono CJK KR" font-size="11.00" fill="#ce9178"> &#160;&#160;&#160;merged</text>
<text text-anchor="start" x="311.5" y="-513.2" font-family="Noto Sans Mono CJK KR" font-size="11.00" fill="#ce9178">)</text>
</g>
<!-- MergeExisting&#45;&gt;Put -->
<g id="edge10" class="edge">
<title>MergeExisting&#45;&gt;Put</title>
<path fill="none" stroke="#333333" stroke-width="1.6" d="M285.38,-625.72C296.57,-612.39 309.29,-597.23 320.85,-583.46"/>
<polygon fill="#333333" stroke="#333333" stroke-width="1.6" points="323.08,-585.17 326.08,-577.24 318.79,-581.57 323.08,-585.17"/>
</g>
<!-- MergeNew&#45;&gt;Put -->
<g id="edge11" class="edge">
<title>MergeNew&#45;&gt;Put</title>
<path fill="none" stroke="#333333" stroke-width="1.6" d="M445.82,-645.35C432.06,-629.27 410.93,-604.59 392.68,-583.27"/>
<polygon fill="#333333" stroke="#333333" stroke-width="1.6" points="394.7,-581.32 387.37,-577.06 390.44,-584.96 394.7,-581.32"/>
</g>
<!-- Store -->
<g id="node11" class="node">
<title>Store</title>
<path fill="#1e1e1e" stroke="#6a9955" stroke-width="2" d="M443.5,-444C443.5,-444 269.5,-444 269.5,-444 263.5,-444 257.5,-438 257.5,-432 257.5,-432 257.5,-319 257.5,-319 257.5,-313 263.5,-307 269.5,-307 269.5,-307 443.5,-307 443.5,-307 449.5,-307 455.5,-313 455.5,-319 455.5,-319 455.5,-432 455.5,-432 455.5,-438 449.5,-444 443.5,-444"/>
<text text-anchor="start" x="269.5" y="-428.2" font-family="Noto Sans Mono CJK KR" font-size="11.00" fill="#b5cea8">entity_store : InMemoryStore</text>
<text text-anchor="start" x="269.5" y="-403.2" font-family="Noto Sans Mono CJK KR" font-size="11.00" fill="#b5cea8">namespace</text>
<text text-anchor="start" x="269.5" y="-391.2" font-family="Noto Sans Mono CJK KR" font-size="11.00" fill="#b5cea8">(&quot;users&quot;, &quot;user&#45;123&quot;, &quot;entities&quot;)</text>
<text text-anchor="start" x="269.5" y="-366.2" font-family="Noto Sans Mono CJK KR" font-size="11.00" fill="#b5cea8">key</text>
<text text-anchor="start" x="269.5" y="-354.2" font-family="Noto Sans Mono CJK KR" font-size="11.00" fill="#b5cea8">person.name</text>
<text text-anchor="start" x="269.5" y="-329.2" font-family="Noto Sans Mono CJK KR" font-size="11.00" fill="#b5cea8">value</text>
<text text-anchor="start" x="269.5" y="-317.2" font-family="Noto Sans Mono CJK KR" font-size="11.00" fill="#b5cea8">merged dict</text>
</g>
<!-- Put&#45;&gt;Store -->
<g id="edge12" class="edge">
<title>Put&#45;&gt;Store</title>
<path fill="none" stroke="#4ec9b0" stroke-width="2.4" d="M356.5,-502.94C356.5,-487.94 356.5,-469.92 356.5,-452.26"/>
<polygon fill="#4ec9b0" stroke="#4ec9b0" stroke-width="2.4" points="359.3,-452.18 356.5,-444.18 353.7,-452.18 359.3,-452.18"/>
<text text-anchor="middle" x="387" y="-471" font-family="Noto Sans CJK KR" font-size="10.00" fill="#4ec9b0">5. upsert 완료</text>
</g>
<!-- Search -->
<g id="node12" class="node">
<title>Search</title>
<path fill="#1e1e1e" stroke="#ce9178" stroke-width="2" d="M343,-248C343,-248 54,-248 54,-248 48,-248 42,-242 42,-236 42,-236 42,-222 42,-222 42,-216 48,-210 54,-210 54,-210 343,-210 343,-210 349,-210 355,-216 355,-222 355,-222 355,-236 355,-236 355,-242 349,-248 343,-248"/>
<text text-anchor="start" x="54" y="-232.2" font-family="Noto Sans Mono CJK KR" font-size="11.00" fill="#ce9178"># namespace에 저장된 모든 엔티티</text>
<text text-anchor="start" x="54" y="-220.2" font-family="Noto Sans Mono CJK KR" font-size="11.00" fill="#ce9178">[item.value for item in entity_store.search(namespace)]</text>
</g>
<!-- Store&#45;&gt;Search -->
<g id="edge13" class="edge">
<title>Store&#45;&gt;Search</title>
<path fill="none" stroke="#6a9955" stroke-width="2.4" d="M282.59,-306.9C261.74,-287.84 240.42,-268.34 224.47,-253.75"/>
<polygon fill="#6a9955" stroke="#6a9955" stroke-width="2.4" points="226.2,-251.54 218.41,-248.21 222.42,-255.67 226.2,-251.54"/>
<text text-anchor="middle" x="311.5" y="-275" font-family="Noto Sans CJK KR" font-size="10.00" fill="#6a9955">6&#45;A. 전체 namespace 검색</text>
</g>
<!-- DirectGet -->
<g id="node14" class="node">
<title>DirectGet</title>
<path fill="#1e1e1e" stroke="#ce9178" stroke-width="2" d="M634,-248C634,-248 399,-248 399,-248 393,-248 387,-242 387,-236 387,-236 387,-222 387,-222 387,-216 393,-210 399,-210 399,-210 634,-210 634,-210 640,-210 646,-216 646,-222 646,-222 646,-236 646,-236 646,-242 640,-248 634,-248"/>
<text text-anchor="start" x="399" y="-232.2" font-family="Noto Sans Mono CJK KR" font-size="11.00" fill="#ce9178"># key를 알고 있을 때는 직접 조회합니다.</text>
<text text-anchor="start" x="399" y="-220.2" font-family="Noto Sans Mono CJK KR" font-size="11.00" fill="#ce9178">shirley = entity_store.get(namespace, &quot;셜리&quot;)</text>
</g>
<!-- Store&#45;&gt;DirectGet -->
<g id="edge15" class="edge">
<title>Store&#45;&gt;DirectGet</title>
<path fill="none" stroke="#6a9955" stroke-width="2.4" d="M431.35,-306.9C452.46,-287.84 474.05,-268.34 490.2,-253.75"/>
<polygon fill="#6a9955" stroke="#6a9955" stroke-width="2.4" points="492.28,-255.65 496.34,-248.21 488.52,-251.49 492.28,-255.65"/>
<text text-anchor="middle" x="523.5" y="-275" font-family="Noto Sans CJK KR" font-size="10.00" fill="#6a9955">6&#45;B. key=&quot;셜리&quot; 직접 조회</text>
</g>
<!-- SearchResult -->
<g id="node13" class="node">
<title>SearchResult</title>
<path fill="#1e1e1e" stroke="#6a9955" stroke-width="2" d="M310,-50C310,-50 87,-50 87,-50 81,-50 75,-44 75,-38 75,-38 75,-12 75,-12 75,-6 81,0 87,0 87,0 310,0 310,0 316,0 322,-6 322,-12 322,-12 322,-38 322,-38 322,-44 316,-50 310,-50"/>
<text text-anchor="start" x="87" y="-34.2" font-family="Noto Sans Mono CJK KR" font-size="11.00" fill="#b5cea8">entity_store.search(namespace)</text>
<text text-anchor="start" x="87" y="-22.2" font-family="Noto Sans Mono CJK KR" font-size="11.00" fill="#b5cea8">→ Store item 목록</text>
<text text-anchor="start" x="87" y="-10.2" font-family="Noto Sans Mono CJK KR" font-size="11.00" fill="#b5cea8">→ item.value만 list comprehension으로 추출</text>
</g>
<!-- Search&#45;&gt;SearchResult -->
<g id="edge14" class="edge">
<title>Search&#45;&gt;SearchResult</title>
<path fill="none" stroke="#333333" stroke-width="1.6" d="M198.5,-209.72C198.5,-175.48 198.5,-101.31 198.5,-58.41"/>
<polygon fill="#333333" stroke="#333333" stroke-width="1.6" points="201.3,-58.27 198.5,-50.27 195.7,-58.27 201.3,-58.27"/>
</g>
<!-- Found -->
<g id="node15" class="node">
<title>Found</title>
<polygon fill="#1e1e1e" stroke="#dcdcaa" stroke-width="2" points="516.5,-161 386.5,-135 516.5,-109 646.5,-135 516.5,-161"/>
<text text-anchor="start" x="415.92" y="-132.2" font-family="Noto Sans Mono CJK KR" font-size="11.00" fill="#dcdcaa">shirley가 존재하는가?</text>
</g>
<!-- DirectGet&#45;&gt;Found -->
<g id="edge16" class="edge">
<title>DirectGet&#45;&gt;Found</title>
<path fill="none" stroke="#333333" stroke-width="1.6" d="M516.5,-209.82C516.5,-198.29 516.5,-183.01 516.5,-169.35"/>
<polygon fill="#333333" stroke="#333333" stroke-width="1.6" points="519.3,-169.1 516.5,-161.1 513.7,-169.1 519.3,-169.1"/>
</g>
<!-- ShirleyValue -->
<g id="node16" class="node">
<title>ShirleyValue</title>
<path fill="#1e1e1e" stroke="#6a9955" stroke-width="2" d="M493,-43C493,-43 424,-43 424,-43 418,-43 412,-37 412,-31 412,-31 412,-19 412,-19 412,-13 418,-7 424,-7 424,-7 493,-7 493,-7 499,-7 505,-13 505,-19 505,-19 505,-31 505,-31 505,-37 499,-43 493,-43"/>
<text text-anchor="start" x="424" y="-22.2" font-family="Noto Sans Mono CJK KR" font-size="11.00" fill="#b5cea8">shirley.value</text>
</g>
<!-- Found&#45;&gt;ShirleyValue -->
<g id="edge17" class="edge">
<title>Found&#45;&gt;ShirleyValue</title>
<path fill="none" stroke="#6a9955" stroke-width="2.4" d="M504.34,-111.36C494.81,-93.61 481.56,-68.94 471.75,-50.68"/>
<polygon fill="#6a9955" stroke="#6a9955" stroke-width="2.4" points="474.04,-49.01 467.78,-43.29 469.1,-51.66 474.04,-49.01"/>
<text text-anchor="middle" x="496" y="-77" font-family="Noto Sans CJK KR" font-size="10.00" fill="#6a9955">Yes</text>
</g>
<!-- Missing -->
<g id="node17" class="node">
<title>Missing</title>
<path fill="#1e1e1e" stroke="#6a9955" stroke-width="2" d="M857.5,-43C857.5,-43 549.5,-43 549.5,-43 543.5,-43 537.5,-37 537.5,-31 537.5,-31 537.5,-19 537.5,-19 537.5,-13 543.5,-7 549.5,-7 549.5,-7 857.5,-7 857.5,-7 863.5,-7 869.5,-13 869.5,-19 869.5,-19 869.5,-31 869.5,-31 869.5,-37 863.5,-43 857.5,-43"/>
<text text-anchor="start" x="549.5" y="-22.2" font-family="Noto Sans Mono CJK KR" font-size="11.00" fill="#b5cea8">&#39;셜리&#39;라는 key가 없습니다. 추출 결과의 실제 이름을 확인하세요.</text>
</g>
<!-- Found&#45;&gt;Missing -->
<g id="edge18" class="edge">
<title>Found&#45;&gt;Missing</title>
<path fill="none" stroke="#ce9178" stroke-width="2.4" d="M549.07,-115.19C581.9,-96.23 632.47,-67.02 666.72,-47.24"/>
<polygon fill="#ce9178" stroke="#ce9178" stroke-width="2.4" points="668.24,-49.6 673.77,-43.17 665.44,-44.75 668.24,-49.6"/>
<text text-anchor="middle" x="622.5" y="-77" font-family="Noto Sans CJK KR" font-size="10.00" fill="#ce9178">No</text>
</g>
</g>
</svg>
