<?xml version="1.0" encoding="UTF-8" standalone="no"?>
<!DOCTYPE svg PUBLIC "-//W3C//DTD SVG 1.1//EN"
 "http://www.w3.org/Graphics/SVG/1.1/DTD/svg11.dtd">
<!-- Generated by graphviz version 2.42.4 (0)
 -->
<!-- Title: G Pages: 1 -->
<svg width="1248pt" height="1336pt"
 viewBox="0.00 0.00 1247.70 1336.20" xmlns="http://www.w3.org/2000/svg" xmlns:xlink="http://www.w3.org/1999/xlink">
<g id="graph0" class="graph" transform="scale(1 1) rotate(0) translate(21.6 1314.6)">
<title>G</title>
<polygon fill="white" stroke="transparent" points="-21.6,21.6 -21.6,-1314.6 1226.1,-1314.6 1226.1,21.6 -21.6,21.6"/>
<text text-anchor="middle" x="602.25" y="-1269.8" font-family="Noto Sans CJK KR" font-size="24.00">00. 전체 흐름 — 모델 초기화 → 그래프 컴파일 → 동일 스레드 메모리 → 상태 조회 → 스레드 격리</text>
<!-- Setup -->
<g id="node1" class="node">
<title>Setup</title>
<path fill="#1e1e1e" stroke="#555555" stroke-width="2" d="M383,-1259C383,-1259 12,-1259 12,-1259 6,-1259 0,-1253 0,-1247 0,-1247 0,-1130 0,-1130 0,-1124 6,-1118 12,-1118 12,-1118 383,-1118 383,-1118 389,-1118 395,-1124 395,-1130 395,-1130 395,-1247 395,-1247 395,-1253 389,-1259 383,-1259"/>
<text text-anchor="start" x="13" y="-1241.2" font-family="Noto Sans Mono CJK KR" font-size="11.00" fill="#d4d4d4">import os</text>
<text text-anchor="start" x="13" y="-1216.2" font-family="Noto Sans Mono CJK KR" font-size="11.00" fill="#d4d4d4">from dotenv import load_dotenv</text>
<text text-anchor="start" x="13" y="-1204.2" font-family="Noto Sans Mono CJK KR" font-size="11.00" fill="#d4d4d4">from langchain.chat_models import init_chat_model</text>
<text text-anchor="start" x="13" y="-1179.2" font-family="Noto Sans Mono CJK KR" font-size="11.00" fill="#d4d4d4">load_dotenv()</text>
<text text-anchor="start" x="13" y="-1154.2" font-family="Noto Sans Mono CJK KR" font-size="11.00" fill="#d4d4d4"># 다른 공급자를 쓸 때는 예: anthropic:claude&#45;... 처럼 지정할 수 있습니다.</text>
<text text-anchor="start" x="13" y="-1142.2" font-family="Noto Sans Mono CJK KR" font-size="11.00" fill="#d4d4d4">MODEL_ID = os.getenv(&quot;CHAT_MODEL&quot;, &quot;openai:gpt&#45;5.6&#45;luna&quot;)</text>
<text text-anchor="start" x="13" y="-1130.2" font-family="Noto Sans Mono CJK KR" font-size="11.00" fill="#d4d4d4">model = init_chat_model(MODEL_ID)</text>
</g>
<!-- CallModel -->
<g id="node3" class="node">
<title>CallModel</title>
<path fill="#1e1e1e" stroke="#ce9178" stroke-width="2" d="M536,-1059C536,-1059 179,-1059 179,-1059 173,-1059 167,-1053 167,-1047 167,-1047 167,-981 167,-981 167,-975 173,-969 179,-969 179,-969 536,-969 536,-969 542,-969 548,-975 548,-981 548,-981 548,-1047 548,-1047 548,-1053 542,-1059 536,-1059"/>
<text text-anchor="start" x="180" y="-1041.2" font-family="Noto Sans Mono CJK KR" font-size="11.00" fill="#ce9178">def call_model(state: MessagesState):</text>
<text text-anchor="start" x="180" y="-1029.2" font-family="Noto Sans Mono CJK KR" font-size="11.00" fill="#ce9178"> &#160;&#160;&#160;response = model.invoke(</text>
<text text-anchor="start" x="180" y="-1017.2" font-family="Noto Sans Mono CJK KR" font-size="11.00" fill="#ce9178"> &#160;&#160;&#160;&#160;&#160;&#160;&#160;[SystemMessage(content=SYSTEM_PROMPT), *state[&quot;messages&quot;]]</text>
<text text-anchor="start" x="180" y="-1005.2" font-family="Noto Sans Mono CJK KR" font-size="11.00" fill="#ce9178"> &#160;&#160;&#160;)</text>
<text text-anchor="start" x="180" y="-993.2" font-family="Noto Sans Mono CJK KR" font-size="11.00" fill="#ce9178"> &#160;&#160;&#160;# MessagesState의 reducer가 기존 목록 뒤에 이 메시지를 추가합니다.</text>
<text text-anchor="start" x="180" y="-981.2" font-family="Noto Sans Mono CJK KR" font-size="11.00" fill="#ce9178"> &#160;&#160;&#160;return {&quot;messages&quot;: [response]}</text>
</g>
<!-- Setup&#45;&gt;CallModel -->
<g id="edge1" class="edge">
<title>Setup&#45;&gt;CallModel</title>
<path fill="none" stroke="#374151" stroke-width="1.6" d="M281,-1117.78C281,-1117.78 281,-1067.02 281,-1067.02"/>
<polygon fill="#374151" stroke="#374151" stroke-width="1.6" points="283.8,-1067.02 281,-1059.02 278.2,-1067.02 283.8,-1067.02"/>
<text text-anchor="middle" x="266.5" y="-1086" font-family="Noto Sans CJK KR" font-size="10.00" fill="#111827">model 객체를 함수 내부에서 사용</text>
</g>
<!-- GraphImports -->
<g id="node2" class="node">
<title>GraphImports</title>
<path fill="#1e1e1e" stroke="#555555" stroke-width="2" d="M783.5,-1228C783.5,-1228 439.5,-1228 439.5,-1228 433.5,-1228 427.5,-1222 427.5,-1216 427.5,-1216 427.5,-1161 427.5,-1161 427.5,-1155 433.5,-1149 439.5,-1149 439.5,-1149 783.5,-1149 783.5,-1149 789.5,-1149 795.5,-1155 795.5,-1161 795.5,-1161 795.5,-1216 795.5,-1216 795.5,-1222 789.5,-1228 783.5,-1228"/>
<text text-anchor="start" x="440.5" y="-1210.2" font-family="Noto Sans Mono CJK KR" font-size="11.00" fill="#d4d4d4">from langchain.messages import SystemMessage</text>
<text text-anchor="start" x="440.5" y="-1198.2" font-family="Noto Sans Mono CJK KR" font-size="11.00" fill="#d4d4d4">from langgraph.checkpoint.memory import InMemorySaver</text>
<text text-anchor="start" x="440.5" y="-1186.2" font-family="Noto Sans Mono CJK KR" font-size="11.00" fill="#d4d4d4">from langgraph.graph import END, START, MessagesState, StateGraph</text>
<text text-anchor="start" x="440.5" y="-1161.2" font-family="Noto Sans Mono CJK KR" font-size="11.00" fill="#d4d4d4">SYSTEM_PROMPT = &quot;당신은 친절하고 정확한 은행 상담 챗봇입니다.&quot;</text>
</g>
<!-- GraphImports&#45;&gt;CallModel -->
<g id="edge2" class="edge">
<title>GraphImports&#45;&gt;CallModel</title>
<path fill="none" stroke="#374151" stroke-width="1.6" d="M487.75,-1148.9C487.75,-1148.9 487.75,-1067.29 487.75,-1067.29"/>
<polygon fill="#374151" stroke="#374151" stroke-width="1.6" points="490.55,-1067.29 487.75,-1059.29 484.95,-1067.29 490.55,-1067.29"/>
<text text-anchor="middle" x="481" y="-1086" font-family="Noto Sans CJK KR" font-size="10.00" fill="#111827">SystemMessage / MessagesState 사용</text>
</g>
<!-- Builder -->
<g id="node4" class="node">
<title>Builder</title>
<path fill="#1e1e1e" stroke="#569cd6" stroke-width="2" d="M749.5,-910C749.5,-910 473.5,-910 473.5,-910 467.5,-910 461.5,-904 461.5,-898 461.5,-898 461.5,-831 461.5,-831 461.5,-825 467.5,-819 473.5,-819 473.5,-819 749.5,-819 749.5,-819 755.5,-819 761.5,-825 761.5,-831 761.5,-831 761.5,-898 761.5,-898 761.5,-904 755.5,-910 749.5,-910"/>
<text text-anchor="start" x="474.5" y="-892.2" font-family="Noto Sans Mono CJK KR" font-size="11.00" fill="#569cd6">builder = StateGraph(MessagesState)</text>
<text text-anchor="start" x="474.5" y="-880.2" font-family="Noto Sans Mono CJK KR" font-size="11.00" fill="#569cd6">builder.add_node(&quot;model&quot;, call_model)</text>
<text text-anchor="start" x="474.5" y="-868.2" font-family="Noto Sans Mono CJK KR" font-size="11.00" fill="#569cd6">builder.add_edge(START, &quot;model&quot;)</text>
<text text-anchor="start" x="474.5" y="-856.2" font-family="Noto Sans Mono CJK KR" font-size="11.00" fill="#569cd6">builder.add_edge(&quot;model&quot;, END)</text>
<text text-anchor="start" x="474.5" y="-831.2" font-family="Noto Sans Mono CJK KR" font-size="11.00" fill="#569cd6">chat = builder.compile(checkpointer=InMemorySaver())</text>
</g>
<!-- GraphImports&#45;&gt;Builder -->
<g id="edge3" class="edge">
<title>GraphImports&#45;&gt;Builder</title>
<path fill="none" stroke="#374151" stroke-width="1.6" d="M654.75,-1148.77C654.75,-1148.77 654.75,-918.03 654.75,-918.03"/>
<polygon fill="#374151" stroke="#374151" stroke-width="1.6" points="657.55,-918.03 654.75,-910.03 651.95,-918.03 657.55,-918.03"/>
<text text-anchor="middle" x="722" y="-1011.5" font-family="Noto Sans CJK KR" font-size="10.00" fill="#111827">StateGraph / START / END / InMemorySaver 사용</text>
</g>
<!-- CallModel&#45;&gt;Builder -->
<g id="edge4" class="edge">
<title>CallModel&#45;&gt;Builder</title>
<path fill="none" stroke="#374151" stroke-width="2.4" d="M504.75,-968.74C504.75,-968.74 504.75,-918.12 504.75,-918.12"/>
<polygon fill="#374151" stroke="#374151" stroke-width="2.4" points="507.55,-918.12 504.75,-910.12 501.95,-918.12 507.55,-918.12"/>
<text text-anchor="middle" x="473.5" y="-937" font-family="Noto Sans CJK KR" font-size="10.00" fill="#111827">builder.add_node(&quot;model&quot;, call_model)</text>
</g>
<!-- Ask -->
<g id="node6" class="node">
<title>Ask</title>
<path fill="#1e1e1e" stroke="#555555" stroke-width="2" d="M564,-760C564,-760 241,-760 241,-760 235,-760 229,-754 229,-748 229,-748 229,-644 229,-644 229,-638 235,-632 241,-632 241,-632 564,-632 564,-632 570,-632 576,-638 576,-644 576,-644 576,-748 576,-748 576,-754 570,-760 564,-760"/>
<text text-anchor="start" x="242" y="-742.2" font-family="Noto Sans Mono CJK KR" font-size="11.00" fill="#d4d4d4">config = {&quot;configurable&quot;: {&quot;thread_id&quot;: &quot;bank&#45;account&#45;demo&quot;}}</text>
<text text-anchor="start" x="242" y="-704.2" font-family="Noto Sans Mono CJK KR" font-size="11.00" fill="#d4d4d4">def ask(text: str) &#45;&gt; str:</text>
<text text-anchor="start" x="242" y="-692.2" font-family="Noto Sans Mono CJK KR" font-size="11.00" fill="#d4d4d4"> &#160;&#160;&#160;result = chat.invoke(</text>
<text text-anchor="start" x="242" y="-680.2" font-family="Noto Sans Mono CJK KR" font-size="11.00" fill="#d4d4d4"> &#160;&#160;&#160;&#160;&#160;&#160;&#160;{&quot;messages&quot;: [{&quot;role&quot;: &quot;user&quot;, &quot;content&quot;: text}]},</text>
<text text-anchor="start" x="242" y="-668.2" font-family="Noto Sans Mono CJK KR" font-size="11.00" fill="#d4d4d4"> &#160;&#160;&#160;&#160;&#160;&#160;&#160;config=config,</text>
<text text-anchor="start" x="242" y="-656.2" font-family="Noto Sans Mono CJK KR" font-size="11.00" fill="#d4d4d4"> &#160;&#160;&#160;)</text>
<text text-anchor="start" x="242" y="-644.2" font-family="Noto Sans Mono CJK KR" font-size="11.00" fill="#d4d4d4"> &#160;&#160;&#160;return result[&quot;messages&quot;][&#45;1].content</text>
</g>
<!-- Builder&#45;&gt;Ask -->
<g id="edge6" class="edge">
<title>Builder&#45;&gt;Ask</title>
<path fill="none" stroke="#374151" stroke-width="1.6" d="M518.75,-818.9C518.75,-818.9 518.75,-768.3 518.75,-768.3"/>
<polygon fill="#374151" stroke="#374151" stroke-width="1.6" points="521.55,-768.3 518.75,-760.3 515.95,-768.3 521.55,-768.3"/>
<text text-anchor="middle" x="593.5" y="-787" font-family="Noto Sans CJK KR" font-size="10.00" fill="#111827">compile 결과 chat 사용</text>
</g>
<!-- Other -->
<g id="node12" class="node">
<title>Other</title>
<path fill="#1e1e1e" stroke="#ce9178" stroke-width="2" d="M1023.5,-741C1023.5,-741 619.5,-741 619.5,-741 613.5,-741 607.5,-735 607.5,-729 607.5,-729 607.5,-663 607.5,-663 607.5,-657 613.5,-651 619.5,-651 619.5,-651 1023.5,-651 1023.5,-651 1029.5,-651 1035.5,-657 1035.5,-663 1035.5,-663 1035.5,-729 1035.5,-729 1035.5,-735 1029.5,-741 1023.5,-741"/>
<text text-anchor="start" x="620.5" y="-723.2" font-family="Noto Sans Mono CJK KR" font-size="11.00" fill="#ce9178">other_config = {&quot;configurable&quot;: {&quot;thread_id&quot;: &quot;another&#45;customer&quot;}}</text>
<text text-anchor="start" x="620.5" y="-711.2" font-family="Noto Sans Mono CJK KR" font-size="11.00" fill="#ce9178">result = chat.invoke(</text>
<text text-anchor="start" x="620.5" y="-699.2" font-family="Noto Sans Mono CJK KR" font-size="11.00" fill="#ce9178"> &#160;&#160;&#160;{&quot;messages&quot;: [{&quot;role&quot;: &quot;user&quot;, &quot;content&quot;: &quot;제가 방금 무엇을 물었나요?&quot;}]},</text>
<text text-anchor="start" x="620.5" y="-687.2" font-family="Noto Sans Mono CJK KR" font-size="11.00" fill="#ce9178"> &#160;&#160;&#160;config=other_config,</text>
<text text-anchor="start" x="620.5" y="-675.2" font-family="Noto Sans Mono CJK KR" font-size="11.00" fill="#ce9178">)</text>
<text text-anchor="start" x="620.5" y="-663.2" font-family="Noto Sans Mono CJK KR" font-size="11.00" fill="#ce9178">print(result[&quot;messages&quot;][&#45;1].content)</text>
</g>
<!-- Builder&#45;&gt;Other -->
<g id="edge13" class="edge">
<title>Builder&#45;&gt;Other</title>
<path fill="none" stroke="#374151" stroke-width="1.6" d="M684.5,-818.9C684.5,-818.9 684.5,-749.05 684.5,-749.05"/>
<polygon fill="#374151" stroke="#374151" stroke-width="1.6" points="687.3,-749.05 684.5,-741.05 681.7,-749.05 687.3,-749.05"/>
<text text-anchor="middle" x="818.5" y="-787" font-family="Noto Sans CJK KR" font-size="10.00" fill="#111827">같은 compiled graph chat 사용</text>
</g>
<!-- Checkpointer -->
<g id="node5" class="node">
<title>Checkpointer</title>
<path fill="#1e1e1e" stroke="#dcdcaa" stroke-width="2" d="M1078,-1047C1078,-1047 877,-1047 877,-1047 871,-1047 865,-1041 865,-1035 865,-1035 865,-993 865,-993 865,-987 871,-981 877,-981 877,-981 1078,-981 1078,-981 1084,-981 1090,-987 1090,-993 1090,-993 1090,-1035 1090,-1035 1090,-1041 1084,-1047 1078,-1047"/>
<text text-anchor="start" x="878" y="-1029.2" font-family="Noto Sans Mono CJK KR" font-size="11.00" fill="#dcdcaa">InMemorySaver()</text>
<text text-anchor="start" x="878" y="-1017.2" font-family="Noto Sans Mono CJK KR" font-size="11.00" fill="#dcdcaa">└─ thread_id별 checkpoint/state 저장</text>
<text text-anchor="start" x="878" y="-1005.2" font-family="Noto Sans Mono CJK KR" font-size="11.00" fill="#dcdcaa">└─ 같은 thread_id → 상태 복원</text>
<text text-anchor="start" x="878" y="-993.2" font-family="Noto Sans Mono CJK KR" font-size="11.00" fill="#dcdcaa">└─ 다른 thread_id → 별도 상태</text>
</g>
<!-- Checkpointer&#45;&gt;Builder -->
<g id="edge5" class="edge">
<title>Checkpointer&#45;&gt;Builder</title>
<path fill="none" stroke="#374151" stroke-width="2.4" d="M950.25,-980.71C950.25,-936.52 950.25,-864 950.25,-864 950.25,-864 769.56,-864 769.56,-864"/>
<polygon fill="#374151" stroke="#374151" stroke-width="2.4" points="769.56,-861.2 761.56,-864 769.56,-866.8 769.56,-861.2"/>
<text text-anchor="middle" x="1091" y="-937" font-family="Noto Sans CJK KR" font-size="10.00" fill="#111827">builder.compile(checkpointer=InMemorySaver())</text>
</g>
<!-- First -->
<g id="node7" class="node">
<title>First</title>
<path fill="#1e1e1e" stroke="#ce9178" stroke-width="2" d="M378,-573C378,-573 57,-573 57,-573 51,-573 45,-567 45,-561 45,-561 45,-495 45,-495 45,-489 51,-483 57,-483 57,-483 378,-483 378,-483 384,-483 390,-489 390,-495 390,-495 390,-561 390,-561 390,-567 384,-573 378,-573"/>
<text text-anchor="start" x="58" y="-555.2" font-family="Noto Sans Mono CJK KR" font-size="11.00" fill="#ce9178">print(</text>
<text text-anchor="start" x="58" y="-543.2" font-family="Noto Sans Mono CJK KR" font-size="11.00" fill="#ce9178"> &#160;&#160;&#160;ask(</text>
<text text-anchor="start" x="58" y="-531.2" font-family="Noto Sans Mono CJK KR" font-size="11.00" fill="#ce9178"> &#160;&#160;&#160;&#160;&#160;&#160;&#160;&quot;안녕하세요. 비대면으로 은행 계좌를 개설하고 싶습니다. &quot;</text>
<text text-anchor="start" x="58" y="-519.2" font-family="Noto Sans Mono CJK KR" font-size="11.00" fill="#ce9178"> &#160;&#160;&#160;&#160;&#160;&#160;&#160;&quot;어떻게 시작해야 하나요?&quot;</text>
<text text-anchor="start" x="58" y="-507.2" font-family="Noto Sans Mono CJK KR" font-size="11.00" fill="#ce9178"> &#160;&#160;&#160;)</text>
<text text-anchor="start" x="58" y="-495.2" font-family="Noto Sans Mono CJK KR" font-size="11.00" fill="#ce9178">)</text>
</g>
<!-- Ask&#45;&gt;First -->
<g id="edge7" class="edge">
<title>Ask&#45;&gt;First</title>
<path fill="none" stroke="#374151" stroke-width="1.6" d="M309.5,-631.53C309.5,-631.53 309.5,-581.03 309.5,-581.03"/>
<polygon fill="#374151" stroke="#374151" stroke-width="1.6" points="312.3,-581.03 309.5,-573.03 306.7,-581.03 312.3,-581.03"/>
<text text-anchor="middle" x="306" y="-600" font-family="Noto Sans CJK KR" font-size="10.00" fill="#111827">ask(...) 호출</text>
</g>
<!-- Second -->
<g id="node9" class="node">
<title>Second</title>
<path fill="#1e1e1e" stroke="#ce9178" stroke-width="2" d="M504,-299C504,-299 177,-299 177,-299 171,-299 165,-293 165,-287 165,-287 165,-275 165,-275 165,-269 171,-263 177,-263 177,-263 504,-263 504,-263 510,-263 516,-269 516,-275 516,-275 516,-287 516,-287 516,-293 510,-299 504,-299"/>
<text text-anchor="start" x="178" y="-278.2" font-family="Noto Sans Mono CJK KR" font-size="11.00" fill="#ce9178">print(ask(&quot;방금 안내한 절차를 불렛포인트로 다시 정리해 주세요.&quot;))</text>
</g>
<!-- Ask&#45;&gt;Second -->
<g id="edge10" class="edge">
<title>Ask&#45;&gt;Second</title>
<path fill="none" stroke="#374151" stroke-width="1.6" d="M453,-631.61C453,-631.61 453,-307.14 453,-307.14"/>
<polygon fill="#374151" stroke="#374151" stroke-width="1.6" points="455.8,-307.14 453,-299.14 450.2,-307.14 455.8,-307.14"/>
<text text-anchor="middle" x="498.5" y="-451" font-family="Noto Sans CJK KR" font-size="10.00" fill="#111827">동일 ask() 함수 재사용</text>
</g>
<!-- State1 -->
<g id="node8" class="node">
<title>State1</title>
<path fill="#1e1e1e" stroke="#c586c0" stroke-width="2" d="M311.5,-424C311.5,-424 123.5,-424 123.5,-424 117.5,-424 111.5,-418 111.5,-412 111.5,-412 111.5,-370 111.5,-370 111.5,-364 117.5,-358 123.5,-358 123.5,-358 311.5,-358 311.5,-358 317.5,-358 323.5,-364 323.5,-370 323.5,-370 323.5,-412 323.5,-412 323.5,-418 317.5,-424 311.5,-424"/>
<text text-anchor="start" x="124.5" y="-406.2" font-family="Noto Sans Mono CJK KR" font-size="11.00" fill="#c586c0">thread_id = bank&#45;account&#45;demo</text>
<text text-anchor="start" x="124.5" y="-394.2" font-family="Noto Sans Mono CJK KR" font-size="11.00" fill="#c586c0">첫 호출 전: 저장 상태 없음</text>
<text text-anchor="start" x="124.5" y="-382.2" font-family="Noto Sans Mono CJK KR" font-size="11.00" fill="#c586c0">입력 후 messages = [user1]</text>
<text text-anchor="start" x="124.5" y="-370.2" font-family="Noto Sans Mono CJK KR" font-size="11.00" fill="#c586c0">모델 응답 후 messages = [user1, ai1]</text>
</g>
<!-- First&#45;&gt;State1 -->
<g id="edge8" class="edge">
<title>First&#45;&gt;State1</title>
<path fill="none" stroke="#374151" stroke-width="2.4" d="M217.5,-482.76C217.5,-482.76 217.5,-432.04 217.5,-432.04"/>
<polygon fill="#374151" stroke="#374151" stroke-width="2.4" points="220.3,-432.04 217.5,-424.04 214.7,-432.04 220.3,-432.04"/>
<text text-anchor="middle" x="309.5" y="-451" font-family="Noto Sans CJK KR" font-size="10.00" fill="#111827">chat.invoke → reducer 병합 → checkpoint 저장</text>
</g>
<!-- State1&#45;&gt;Second -->
<g id="edge9" class="edge">
<title>State1&#45;&gt;Second</title>
<path fill="none" stroke="#374151" stroke-width="1.6" stroke-dasharray="5,2" d="M244.25,-358C244.25,-358 244.25,-307.27 244.25,-307.27"/>
<polygon fill="#374151" stroke="#374151" stroke-width="1.6" points="247.05,-307.27 244.25,-299.27 241.45,-307.27 247.05,-307.27"/>
<text text-anchor="middle" x="329.5" y="-326" font-family="Noto Sans CJK KR" font-size="10.00" fill="#111827">같은 thread_id 상태가 다음 호출의 시작점</text>
</g>
<!-- State2 -->
<g id="node10" class="node">
<title>State2</title>
<path fill="#1e1e1e" stroke="#c586c0" stroke-width="2" d="M424,-204C424,-204 257,-204 257,-204 251,-204 245,-198 245,-192 245,-192 245,-138 245,-138 245,-132 251,-126 257,-126 257,-126 424,-126 424,-126 430,-126 436,-132 436,-138 436,-138 436,-192 436,-192 436,-198 430,-204 424,-204"/>
<text text-anchor="start" x="258" y="-186.2" font-family="Noto Sans Mono CJK KR" font-size="11.00" fill="#c586c0">같은 thread_id라 checkpoint 복원</text>
<text text-anchor="start" x="258" y="-174.2" font-family="Noto Sans Mono CJK KR" font-size="11.00" fill="#c586c0">기존 [user1, ai1] + 새 user2</text>
<text text-anchor="start" x="258" y="-162.2" font-family="Noto Sans Mono CJK KR" font-size="11.00" fill="#c586c0">→ [user1, ai1, user2]</text>
<text text-anchor="start" x="258" y="-150.2" font-family="Noto Sans Mono CJK KR" font-size="11.00" fill="#c586c0">모델 응답 병합</text>
<text text-anchor="start" x="258" y="-138.2" font-family="Noto Sans Mono CJK KR" font-size="11.00" fill="#c586c0">→ [user1, ai1, user2, ai2]</text>
</g>
<!-- Second&#45;&gt;State2 -->
<g id="edge11" class="edge">
<title>Second&#45;&gt;State2</title>
<path fill="none" stroke="#374151" stroke-width="2.4" d="M340.5,-262.88C340.5,-262.88 340.5,-212.11 340.5,-212.11"/>
<polygon fill="#374151" stroke="#374151" stroke-width="2.4" points="343.3,-212.11 340.5,-204.11 337.7,-212.11 343.3,-212.11"/>
<text text-anchor="middle" x="439.5" y="-231" font-family="Noto Sans CJK KR" font-size="10.00" fill="#111827">checkpoint 복원 → 새 메시지 병합 → 응답 저장</text>
</g>
<!-- Snapshot -->
<g id="node11" class="node">
<title>Snapshot</title>
<path fill="#1e1e1e" stroke="#555555" stroke-width="2" d="M473,-67C473,-67 208,-67 208,-67 202,-67 196,-61 196,-55 196,-55 196,-12 196,-12 196,-6 202,0 208,0 208,0 473,0 473,0 479,0 485,-6 485,-12 485,-12 485,-55 485,-55 485,-61 479,-67 473,-67"/>
<text text-anchor="start" x="209" y="-49.2" font-family="Noto Sans Mono CJK KR" font-size="11.00" fill="#d4d4d4">snapshot = chat.get_state(config)</text>
<text text-anchor="start" x="209" y="-24.2" font-family="Noto Sans Mono CJK KR" font-size="11.00" fill="#d4d4d4">for message in snapshot.values[&quot;messages&quot;]:</text>
<text text-anchor="start" x="209" y="-12.2" font-family="Noto Sans Mono CJK KR" font-size="11.00" fill="#d4d4d4"> &#160;&#160;&#160;print(f&quot;[{message.type}] {message.content}\n&quot;)</text>
</g>
<!-- State2&#45;&gt;Snapshot -->
<g id="edge12" class="edge">
<title>State2&#45;&gt;Snapshot</title>
<path fill="none" stroke="#374151" stroke-width="1.6" d="M340.5,-125.9C340.5,-125.9 340.5,-75.33 340.5,-75.33"/>
<polygon fill="#374151" stroke="#374151" stroke-width="1.6" points="343.3,-75.33 340.5,-67.33 337.7,-75.33 343.3,-75.33"/>
<text text-anchor="middle" x="391.5" y="-94" font-family="Noto Sans CJK KR" font-size="10.00" fill="#111827">chat.get_state(config)</text>
</g>
<!-- OtherState -->
<g id="node13" class="node">
<title>OtherState</title>
<path fill="#1e1e1e" stroke="#c586c0" stroke-width="2" d="M926.5,-555C926.5,-555 716.5,-555 716.5,-555 710.5,-555 704.5,-549 704.5,-543 704.5,-543 704.5,-513 704.5,-513 704.5,-507 710.5,-501 716.5,-501 716.5,-501 926.5,-501 926.5,-501 932.5,-501 938.5,-507 938.5,-513 938.5,-513 938.5,-543 938.5,-543 938.5,-549 932.5,-555 926.5,-555"/>
<text text-anchor="start" x="717.5" y="-537.2" font-family="Noto Sans Mono CJK KR" font-size="11.00" fill="#c586c0">thread_id = another&#45;customer</text>
<text text-anchor="start" x="717.5" y="-525.2" font-family="Noto Sans Mono CJK KR" font-size="11.00" fill="#c586c0">기존 bank&#45;account&#45;demo 상태와 완전히 분리</text>
<text text-anchor="start" x="717.5" y="-513.2" font-family="Noto Sans Mono CJK KR" font-size="11.00" fill="#c586c0">messages는 새 사용자 메시지에서 시작</text>
</g>
<!-- Other&#45;&gt;OtherState -->
<g id="edge14" class="edge">
<title>Other&#45;&gt;OtherState</title>
<path fill="none" stroke="#374151" stroke-width="2.4" d="M821.5,-650.98C821.5,-650.98 821.5,-563.26 821.5,-563.26"/>
<polygon fill="#374151" stroke="#374151" stroke-width="2.4" points="824.3,-563.26 821.5,-555.26 818.7,-563.26 824.3,-563.26"/>
<text text-anchor="middle" x="897.5" y="-600" font-family="Noto Sans CJK KR" font-size="10.00" fill="#111827">다른 thread_id → 별도 checkpoint</text>
</g>
</g>
</svg>
