<?xml version="1.0" encoding="UTF-8" standalone="no"?>
<!DOCTYPE svg PUBLIC "-//W3C//DTD SVG 1.1//EN"
 "http://www.w3.org/Graphics/SVG/1.1/DTD/svg11.dtd">
<!-- Generated by graphviz version 2.42.4 (0)
 -->
<!-- Title: G Pages: 1 -->
<svg width="894pt" height="1517pt"
 viewBox="0.00 0.00 894.20 1517.20" xmlns="http://www.w3.org/2000/svg" xmlns:xlink="http://www.w3.org/1999/xlink">
<g id="graph0" class="graph" transform="scale(1 1) rotate(0) translate(21.6 1495.6)">
<title>G</title>
<polygon fill="white" stroke="transparent" points="-21.6,21.6 -21.6,-1495.6 872.6,-1495.6 872.6,21.6 -21.6,21.6"/>
<text text-anchor="middle" x="425.5" y="-1450.8" font-family="Noto Sans CJK KR" font-size="24.00">02. 첫 번째 ask() — 비어 있는 스레드에서 user1 → ai1을 저장하는 전체 invoke 흐름</text>
<!-- Config -->
<g id="node1" class="node">
<title>Config</title>
<path fill="#1e1e1e" stroke="#555555" stroke-width="2" d="M568.5,-1440C568.5,-1440 282.5,-1440 282.5,-1440 276.5,-1440 270.5,-1434 270.5,-1428 270.5,-1428 270.5,-1398 270.5,-1398 270.5,-1392 276.5,-1386 282.5,-1386 282.5,-1386 568.5,-1386 568.5,-1386 574.5,-1386 580.5,-1392 580.5,-1398 580.5,-1398 580.5,-1428 580.5,-1428 580.5,-1434 574.5,-1440 568.5,-1440"/>
<text text-anchor="start" x="283.5" y="-1422.2" font-family="Noto Sans Mono CJK KR" font-size="11.00" fill="#d4d4d4">config = {</text>
<text text-anchor="start" x="283.5" y="-1410.2" font-family="Noto Sans Mono CJK KR" font-size="11.00" fill="#d4d4d4"> &#160;&#160;&#160;&quot;configurable&quot;: {&quot;thread_id&quot;: &quot;bank&#45;account&#45;demo&quot;}</text>
<text text-anchor="start" x="283.5" y="-1398.2" font-family="Noto Sans Mono CJK KR" font-size="11.00" fill="#d4d4d4">}</text>
</g>
<!-- Ask -->
<g id="node2" class="node">
<title>Ask</title>
<path fill="#1e1e1e" stroke="#555555" stroke-width="2" d="M587,-1327C587,-1327 264,-1327 264,-1327 258,-1327 252,-1321 252,-1315 252,-1315 252,-1211 252,-1211 252,-1205 258,-1199 264,-1199 264,-1199 587,-1199 587,-1199 593,-1199 599,-1205 599,-1211 599,-1211 599,-1315 599,-1315 599,-1321 593,-1327 587,-1327"/>
<text text-anchor="start" x="265" y="-1309.2" font-family="Noto Sans Mono CJK KR" font-size="11.00" fill="#d4d4d4">config = {&quot;configurable&quot;: {&quot;thread_id&quot;: &quot;bank&#45;account&#45;demo&quot;}}</text>
<text text-anchor="start" x="265" y="-1271.2" font-family="Noto Sans Mono CJK KR" font-size="11.00" fill="#d4d4d4">def ask(text: str) &#45;&gt; str:</text>
<text text-anchor="start" x="265" y="-1259.2" font-family="Noto Sans Mono CJK KR" font-size="11.00" fill="#d4d4d4"> &#160;&#160;&#160;result = chat.invoke(</text>
<text text-anchor="start" x="265" y="-1247.2" font-family="Noto Sans Mono CJK KR" font-size="11.00" fill="#d4d4d4"> &#160;&#160;&#160;&#160;&#160;&#160;&#160;{&quot;messages&quot;: [{&quot;role&quot;: &quot;user&quot;, &quot;content&quot;: text}]},</text>
<text text-anchor="start" x="265" y="-1235.2" font-family="Noto Sans Mono CJK KR" font-size="11.00" fill="#d4d4d4"> &#160;&#160;&#160;&#160;&#160;&#160;&#160;config=config,</text>
<text text-anchor="start" x="265" y="-1223.2" font-family="Noto Sans Mono CJK KR" font-size="11.00" fill="#d4d4d4"> &#160;&#160;&#160;)</text>
<text text-anchor="start" x="265" y="-1211.2" font-family="Noto Sans Mono CJK KR" font-size="11.00" fill="#d4d4d4"> &#160;&#160;&#160;return result[&quot;messages&quot;][&#45;1].content</text>
</g>
<!-- Config&#45;&gt;Ask -->
<g id="edge1" class="edge">
<title>Config&#45;&gt;Ask</title>
<path fill="none" stroke="#374151" stroke-width="1.6" d="M425.5,-1385.84C425.5,-1385.84 425.5,-1335.02 425.5,-1335.02"/>
<polygon fill="#374151" stroke="#374151" stroke-width="1.6" points="428.3,-1335.02 425.5,-1327.02 422.7,-1335.02 428.3,-1335.02"/>
<text text-anchor="middle" x="477.5" y="-1354" font-family="Noto Sans CJK KR" font-size="10.00" fill="#111827">ask() 내부 config로 사용</text>
</g>
<!-- CallSite -->
<g id="node3" class="node">
<title>CallSite</title>
<path fill="#1e1e1e" stroke="#ce9178" stroke-width="2" d="M586,-1140C586,-1140 265,-1140 265,-1140 259,-1140 253,-1134 253,-1128 253,-1128 253,-1062 253,-1062 253,-1056 259,-1050 265,-1050 265,-1050 586,-1050 586,-1050 592,-1050 598,-1056 598,-1062 598,-1062 598,-1128 598,-1128 598,-1134 592,-1140 586,-1140"/>
<text text-anchor="start" x="266" y="-1122.2" font-family="Noto Sans Mono CJK KR" font-size="11.00" fill="#ce9178">print(</text>
<text text-anchor="start" x="266" y="-1110.2" font-family="Noto Sans Mono CJK KR" font-size="11.00" fill="#ce9178"> &#160;&#160;&#160;ask(</text>
<text text-anchor="start" x="266" y="-1098.2" font-family="Noto Sans Mono CJK KR" font-size="11.00" fill="#ce9178"> &#160;&#160;&#160;&#160;&#160;&#160;&#160;&quot;안녕하세요. 비대면으로 은행 계좌를 개설하고 싶습니다. &quot;</text>
<text text-anchor="start" x="266" y="-1086.2" font-family="Noto Sans Mono CJK KR" font-size="11.00" fill="#ce9178"> &#160;&#160;&#160;&#160;&#160;&#160;&#160;&quot;어떻게 시작해야 하나요?&quot;</text>
<text text-anchor="start" x="266" y="-1074.2" font-family="Noto Sans Mono CJK KR" font-size="11.00" fill="#ce9178"> &#160;&#160;&#160;)</text>
<text text-anchor="start" x="266" y="-1062.2" font-family="Noto Sans Mono CJK KR" font-size="11.00" fill="#ce9178">)</text>
</g>
<!-- Ask&#45;&gt;CallSite -->
<g id="edge2" class="edge">
<title>Ask&#45;&gt;CallSite</title>
<path fill="none" stroke="#374151" stroke-width="1.6" d="M425.5,-1198.53C425.5,-1198.53 425.5,-1148.03 425.5,-1148.03"/>
<polygon fill="#374151" stroke="#374151" stroke-width="1.6" points="428.3,-1148.03 425.5,-1140.03 422.7,-1148.03 428.3,-1148.03"/>
<text text-anchor="middle" x="462" y="-1167" font-family="Noto Sans CJK KR" font-size="10.00" fill="#111827">첫 번째 ask(text)</text>
</g>
<!-- Invoke -->
<g id="node4" class="node">
<title>Invoke</title>
<path fill="#1e1e1e" stroke="#ce9178" stroke-width="2" d="M568.5,-991C568.5,-991 282.5,-991 282.5,-991 276.5,-991 270.5,-985 270.5,-979 270.5,-979 270.5,-937 270.5,-937 270.5,-931 276.5,-925 282.5,-925 282.5,-925 568.5,-925 568.5,-925 574.5,-925 580.5,-931 580.5,-937 580.5,-937 580.5,-979 580.5,-979 580.5,-985 574.5,-991 568.5,-991"/>
<text text-anchor="start" x="283.5" y="-973.2" font-family="Noto Sans Mono CJK KR" font-size="11.00" fill="#ce9178">chat.invoke(</text>
<text text-anchor="start" x="283.5" y="-961.2" font-family="Noto Sans Mono CJK KR" font-size="11.00" fill="#ce9178"> &#160;&#160;&#160;{&quot;messages&quot;: [{&quot;role&quot;: &quot;user&quot;, &quot;content&quot;: text}]},</text>
<text text-anchor="start" x="283.5" y="-949.2" font-family="Noto Sans Mono CJK KR" font-size="11.00" fill="#ce9178"> &#160;&#160;&#160;config=config,</text>
<text text-anchor="start" x="283.5" y="-937.2" font-family="Noto Sans Mono CJK KR" font-size="11.00" fill="#ce9178">)</text>
</g>
<!-- CallSite&#45;&gt;Invoke -->
<g id="edge3" class="edge">
<title>CallSite&#45;&gt;Invoke</title>
<path fill="none" stroke="#374151" stroke-width="2.4" d="M425.5,-1049.76C425.5,-1049.76 425.5,-999.04 425.5,-999.04"/>
<polygon fill="#374151" stroke="#374151" stroke-width="2.4" points="428.3,-999.04 425.5,-991.04 422.7,-999.04 428.3,-999.04"/>
<text text-anchor="middle" x="459" y="-1018" font-family="Noto Sans CJK KR" font-size="10.00" fill="#111827">text 인자로 전달</text>
</g>
<!-- MemoryLookup -->
<g id="node5" class="node">
<title>MemoryLookup</title>
<path fill="#1e1e1e" stroke="#dcdcaa" stroke-width="2" d="M524,-866C524,-866 327,-866 327,-866 321,-866 315,-860 315,-854 315,-854 315,-824 315,-824 315,-818 321,-812 327,-812 327,-812 524,-812 524,-812 530,-812 536,-818 536,-824 536,-824 536,-854 536,-854 536,-860 530,-866 524,-866"/>
<text text-anchor="start" x="328" y="-848.2" font-family="Noto Sans Mono CJK KR" font-size="11.00" fill="#dcdcaa">InMemorySaver</text>
<text text-anchor="start" x="328" y="-836.2" font-family="Noto Sans Mono CJK KR" font-size="11.00" fill="#dcdcaa">lookup(thread_id=&quot;bank&#45;account&#45;demo&quot;)</text>
<text text-anchor="start" x="328" y="-824.2" font-family="Noto Sans Mono CJK KR" font-size="11.00" fill="#dcdcaa">→ 첫 호출이므로 기존 checkpoint 없음</text>
</g>
<!-- Invoke&#45;&gt;MemoryLookup -->
<g id="edge4" class="edge">
<title>Invoke&#45;&gt;MemoryLookup</title>
<path fill="none" stroke="#374151" stroke-width="1.6" d="M425.5,-924.85C425.5,-924.85 425.5,-874.35 425.5,-874.35"/>
<polygon fill="#374151" stroke="#374151" stroke-width="1.6" points="428.3,-874.35 425.5,-866.35 422.7,-874.35 428.3,-874.35"/>
<text text-anchor="middle" x="505.5" y="-893" font-family="Noto Sans CJK KR" font-size="10.00" fill="#111827">config.thread_id로 checkpoint 조회</text>
</g>
<!-- InputState -->
<g id="node6" class="node">
<title>InputState</title>
<path fill="#1e1e1e" stroke="#c586c0" stroke-width="2" d="M603,-753C603,-753 248,-753 248,-753 242,-753 236,-747 236,-741 236,-741 236,-699 236,-699 236,-693 242,-687 248,-687 248,-687 603,-687 603,-687 609,-687 615,-693 615,-699 615,-699 615,-741 615,-741 615,-747 609,-753 603,-753"/>
<text text-anchor="start" x="249" y="-735.2" font-family="Noto Sans Mono CJK KR" font-size="11.00" fill="#c586c0">MessagesState</text>
<text text-anchor="start" x="249" y="-723.2" font-family="Noto Sans Mono CJK KR" font-size="11.00" fill="#c586c0">messages = [</text>
<text text-anchor="start" x="249" y="-711.2" font-family="Noto Sans Mono CJK KR" font-size="11.00" fill="#c586c0"> &#160;&#160;&#160;HumanMessage(&quot;안녕하세요. 비대면으로 ... 어떻게 시작해야 하나요?&quot;)</text>
<text text-anchor="start" x="249" y="-699.2" font-family="Noto Sans Mono CJK KR" font-size="11.00" fill="#c586c0">]</text>
</g>
<!-- MemoryLookup&#45;&gt;InputState -->
<g id="edge5" class="edge">
<title>MemoryLookup&#45;&gt;InputState</title>
<path fill="none" stroke="#374151" stroke-width="2.4" d="M425.5,-812C425.5,-812 425.5,-761.27 425.5,-761.27"/>
<polygon fill="#374151" stroke="#374151" stroke-width="2.4" points="428.3,-761.27 425.5,-753.27 422.7,-761.27 428.3,-761.27"/>
<text text-anchor="middle" x="504.5" y="-780" font-family="Noto Sans CJK KR" font-size="10.00" fill="#111827">복원할 과거 상태 없음 + 새 user 메시지</text>
</g>
<!-- CallModel -->
<g id="node7" class="node">
<title>CallModel</title>
<path fill="#1e1e1e" stroke="#ce9178" stroke-width="2" d="M604,-628C604,-628 247,-628 247,-628 241,-628 235,-622 235,-616 235,-616 235,-550 235,-550 235,-544 241,-538 247,-538 247,-538 604,-538 604,-538 610,-538 616,-544 616,-550 616,-550 616,-616 616,-616 616,-622 610,-628 604,-628"/>
<text text-anchor="start" x="248" y="-610.2" font-family="Noto Sans Mono CJK KR" font-size="11.00" fill="#ce9178">def call_model(state: MessagesState):</text>
<text text-anchor="start" x="248" y="-598.2" font-family="Noto Sans Mono CJK KR" font-size="11.00" fill="#ce9178"> &#160;&#160;&#160;response = model.invoke(</text>
<text text-anchor="start" x="248" y="-586.2" font-family="Noto Sans Mono CJK KR" font-size="11.00" fill="#ce9178"> &#160;&#160;&#160;&#160;&#160;&#160;&#160;[SystemMessage(content=SYSTEM_PROMPT), *state[&quot;messages&quot;]]</text>
<text text-anchor="start" x="248" y="-574.2" font-family="Noto Sans Mono CJK KR" font-size="11.00" fill="#ce9178"> &#160;&#160;&#160;)</text>
<text text-anchor="start" x="248" y="-562.2" font-family="Noto Sans Mono CJK KR" font-size="11.00" fill="#ce9178"> &#160;&#160;&#160;# MessagesState의 reducer가 기존 목록 뒤에 이 메시지를 추가합니다.</text>
<text text-anchor="start" x="248" y="-550.2" font-family="Noto Sans Mono CJK KR" font-size="11.00" fill="#ce9178"> &#160;&#160;&#160;return {&quot;messages&quot;: [response]}</text>
</g>
<!-- InputState&#45;&gt;CallModel -->
<g id="edge6" class="edge">
<title>InputState&#45;&gt;CallModel</title>
<path fill="none" stroke="#374151" stroke-width="1.6" d="M425.5,-686.84C425.5,-686.84 425.5,-636.02 425.5,-636.02"/>
<polygon fill="#374151" stroke="#374151" stroke-width="1.6" points="428.3,-636.02 425.5,-628.02 422.7,-636.02 428.3,-636.02"/>
<text text-anchor="middle" x="482.5" y="-655" font-family="Noto Sans CJK KR" font-size="10.00" fill="#111827">START → model 노드 실행</text>
</g>
<!-- ModelInput -->
<g id="node8" class="node">
<title>ModelInput</title>
<path fill="#1e1e1e" stroke="#555555" stroke-width="2" d="M534.5,-479C534.5,-479 316.5,-479 316.5,-479 310.5,-479 304.5,-473 304.5,-467 304.5,-467 304.5,-376 304.5,-376 304.5,-370 310.5,-364 316.5,-364 316.5,-364 534.5,-364 534.5,-364 540.5,-364 546.5,-370 546.5,-376 546.5,-376 546.5,-467 546.5,-467 546.5,-473 540.5,-479 534.5,-479"/>
<text text-anchor="start" x="317.5" y="-461.2" font-family="Noto Sans Mono CJK KR" font-size="11.00" fill="#d4d4d4">model.invoke([</text>
<text text-anchor="start" x="317.5" y="-449.2" font-family="Noto Sans Mono CJK KR" font-size="11.00" fill="#d4d4d4"> &#160;&#160;&#160;SystemMessage(content=SYSTEM_PROMPT),</text>
<text text-anchor="start" x="317.5" y="-437.2" font-family="Noto Sans Mono CJK KR" font-size="11.00" fill="#d4d4d4"> &#160;&#160;&#160;*state[&quot;messages&quot;]</text>
<text text-anchor="start" x="317.5" y="-425.2" font-family="Noto Sans Mono CJK KR" font-size="11.00" fill="#d4d4d4">])</text>
<text text-anchor="start" x="317.5" y="-400.2" font-family="Noto Sans Mono CJK KR" font-size="11.00" fill="#d4d4d4">실제 모델 입력 순서:</text>
<text text-anchor="start" x="317.5" y="-388.2" font-family="Noto Sans Mono CJK KR" font-size="11.00" fill="#d4d4d4">1) system</text>
<text text-anchor="start" x="317.5" y="-376.2" font-family="Noto Sans Mono CJK KR" font-size="11.00" fill="#d4d4d4">2) user1</text>
</g>
<!-- CallModel&#45;&gt;ModelInput -->
<g id="edge7" class="edge">
<title>CallModel&#45;&gt;ModelInput</title>
<path fill="none" stroke="#374151" stroke-width="2.4" d="M425.5,-537.58C425.5,-537.58 425.5,-487.27 425.5,-487.27"/>
<polygon fill="#374151" stroke="#374151" stroke-width="2.4" points="428.3,-487.27 425.5,-479.27 422.7,-487.27 428.3,-487.27"/>
<text text-anchor="middle" x="467.5" y="-506" font-family="Noto Sans CJK KR" font-size="10.00" fill="#111827">model.invoke 호출</text>
</g>
<!-- Reducer -->
<g id="node9" class="node">
<title>Reducer</title>
<path fill="#1e1e1e" stroke="#c586c0" stroke-width="2" d="M508.5,-305C508.5,-305 342.5,-305 342.5,-305 336.5,-305 330.5,-299 330.5,-293 330.5,-293 330.5,-250 330.5,-250 330.5,-244 336.5,-238 342.5,-238 342.5,-238 508.5,-238 508.5,-238 514.5,-238 520.5,-244 520.5,-250 520.5,-250 520.5,-293 520.5,-293 520.5,-299 514.5,-305 508.5,-305"/>
<text text-anchor="start" x="343.5" y="-287.2" font-family="Noto Sans Mono CJK KR" font-size="11.00" fill="#c586c0">return {&quot;messages&quot;: [response]}</text>
<text text-anchor="start" x="343.5" y="-262.2" font-family="Noto Sans Mono CJK KR" font-size="11.00" fill="#c586c0">MessagesState reducer:</text>
<text text-anchor="start" x="343.5" y="-250.2" font-family="Noto Sans Mono CJK KR" font-size="11.00" fill="#c586c0">[user1] + [ai1] → [user1, ai1]</text>
</g>
<!-- ModelInput&#45;&gt;Reducer -->
<g id="edge8" class="edge">
<title>ModelInput&#45;&gt;Reducer</title>
<path fill="none" stroke="#374151" stroke-width="1.6" d="M425.5,-363.94C425.5,-363.94 425.5,-313.26 425.5,-313.26"/>
<polygon fill="#374151" stroke="#374151" stroke-width="1.6" points="428.3,-313.26 425.5,-305.26 422.7,-313.26 428.3,-313.26"/>
<text text-anchor="middle" x="472.5" y="-332" font-family="Noto Sans CJK KR" font-size="10.00" fill="#111827">AI 응답 response 생성</text>
</g>
<!-- Save -->
<g id="node10" class="node">
<title>Save</title>
<path fill="#1e1e1e" stroke="#dcdcaa" stroke-width="2" d="M544,-179C544,-179 307,-179 307,-179 301,-179 295,-173 295,-167 295,-167 295,-137 295,-137 295,-131 301,-125 307,-125 307,-125 544,-125 544,-125 550,-125 556,-131 556,-137 556,-137 556,-167 556,-167 556,-173 550,-179 544,-179"/>
<text text-anchor="start" x="308" y="-161.2" font-family="Noto Sans Mono CJK KR" font-size="11.00" fill="#dcdcaa">InMemorySaver</text>
<text text-anchor="start" x="308" y="-149.2" font-family="Noto Sans Mono CJK KR" font-size="11.00" fill="#dcdcaa">thread_id=&quot;bank&#45;account&#45;demo&quot; checkpoint 저장</text>
<text text-anchor="start" x="308" y="-137.2" font-family="Noto Sans Mono CJK KR" font-size="11.00" fill="#dcdcaa">messages = [user1, ai1]</text>
</g>
<!-- Reducer&#45;&gt;Save -->
<g id="edge9" class="edge">
<title>Reducer&#45;&gt;Save</title>
<path fill="none" stroke="#374151" stroke-width="2.4" d="M425.5,-237.89C425.5,-237.89 425.5,-187.32 425.5,-187.32"/>
<polygon fill="#374151" stroke="#374151" stroke-width="2.4" points="428.3,-187.32 425.5,-179.32 422.7,-187.32 428.3,-187.32"/>
<text text-anchor="middle" x="499" y="-206" font-family="Noto Sans CJK KR" font-size="10.00" fill="#111827">병합된 전체 state checkpoint 저장</text>
</g>
<!-- Return -->
<g id="node11" class="node">
<title>Return</title>
<path fill="#1e1e1e" stroke="#6a9955" stroke-width="2" d="M505.5,-66C505.5,-66 345.5,-66 345.5,-66 339.5,-66 333.5,-60 333.5,-54 333.5,-54 333.5,-12 333.5,-12 333.5,-6 339.5,0 345.5,0 345.5,0 505.5,0 505.5,0 511.5,0 517.5,-6 517.5,-12 517.5,-12 517.5,-54 517.5,-54 517.5,-60 511.5,-66 505.5,-66"/>
<text text-anchor="start" x="346.5" y="-48.2" font-family="Noto Sans Mono CJK KR" font-size="11.00" fill="#b5cea8">result[&quot;messages&quot;][&#45;1].content</text>
<text text-anchor="start" x="346.5" y="-36.2" font-family="Noto Sans Mono CJK KR" font-size="11.00" fill="#b5cea8">→ ai1.content</text>
<text text-anchor="start" x="346.5" y="-24.2" font-family="Noto Sans Mono CJK KR" font-size="11.00" fill="#b5cea8">→ ask()가 str로 반환</text>
<text text-anchor="start" x="346.5" y="-12.2" font-family="Noto Sans Mono CJK KR" font-size="11.00" fill="#b5cea8">→ print(...)</text>
</g>
<!-- Save&#45;&gt;Return -->
<g id="edge10" class="edge">
<title>Save&#45;&gt;Return</title>
<path fill="none" stroke="#374151" stroke-width="1.6" d="M425.5,-125C425.5,-125 425.5,-74.27 425.5,-74.27"/>
<polygon fill="#374151" stroke="#374151" stroke-width="1.6" points="428.3,-74.27 425.5,-66.27 422.7,-74.27 428.3,-74.27"/>
<text text-anchor="middle" x="477" y="-93" font-family="Noto Sans CJK KR" font-size="10.00" fill="#111827">chat.invoke result 반환</text>
</g>
</g>
</svg>
