<?xml version="1.0" encoding="UTF-8" standalone="no"?>
<!DOCTYPE svg PUBLIC "-//W3C//DTD SVG 1.1//EN"
 "http://www.w3.org/Graphics/SVG/1.1/DTD/svg11.dtd">
<!-- Generated by graphviz version 2.42.4 (0)
 -->
<!-- Title: G Pages: 1 -->
<svg width="1057pt" height="1518pt"
 viewBox="0.00 0.00 1057.20 1518.20" xmlns="http://www.w3.org/2000/svg" xmlns:xlink="http://www.w3.org/1999/xlink">
<g id="graph0" class="graph" transform="scale(1 1) rotate(0) translate(21.6 1496.6)">
<title>G</title>
<polygon fill="white" stroke="transparent" points="-21.6,21.6 -21.6,-1496.6 1035.6,-1496.6 1035.6,21.6 -21.6,21.6"/>
<text text-anchor="middle" x="507" y="-1451.8" font-family="Noto Sans CJK KR" font-size="24.00">03. 두 번째 ask() — 같은 thread_id라 이전 [user1, ai1]을 복원한 뒤 user2 → ai2까지 이어지는 흐름</text>
<!-- Config -->
<g id="node1" class="node">
<title>Config</title>
<path fill="#1e1e1e" stroke="#555555" stroke-width="2" d="M564.75,-1441C564.75,-1441 241.75,-1441 241.75,-1441 235.75,-1441 229.75,-1435 229.75,-1429 229.75,-1429 229.75,-1417 229.75,-1417 229.75,-1411 235.75,-1405 241.75,-1405 241.75,-1405 564.75,-1405 564.75,-1405 570.75,-1405 576.75,-1411 576.75,-1417 576.75,-1417 576.75,-1429 576.75,-1429 576.75,-1435 570.75,-1441 564.75,-1441"/>
<text text-anchor="start" x="242.75" y="-1420.2" font-family="Noto Sans Mono CJK KR" font-size="11.00" fill="#d4d4d4">config = {&quot;configurable&quot;: {&quot;thread_id&quot;: &quot;bank&#45;account&#45;demo&quot;}}</text>
</g>
<!-- Ask -->
<g id="node2" class="node">
<title>Ask</title>
<path fill="#1e1e1e" stroke="#555555" stroke-width="2" d="M564.75,-1346C564.75,-1346 241.75,-1346 241.75,-1346 235.75,-1346 229.75,-1340 229.75,-1334 229.75,-1334 229.75,-1230 229.75,-1230 229.75,-1224 235.75,-1218 241.75,-1218 241.75,-1218 564.75,-1218 564.75,-1218 570.75,-1218 576.75,-1224 576.75,-1230 576.75,-1230 576.75,-1334 576.75,-1334 576.75,-1340 570.75,-1346 564.75,-1346"/>
<text text-anchor="start" x="242.75" y="-1328.2" font-family="Noto Sans Mono CJK KR" font-size="11.00" fill="#d4d4d4">config = {&quot;configurable&quot;: {&quot;thread_id&quot;: &quot;bank&#45;account&#45;demo&quot;}}</text>
<text text-anchor="start" x="242.75" y="-1290.2" font-family="Noto Sans Mono CJK KR" font-size="11.00" fill="#d4d4d4">def ask(text: str) &#45;&gt; str:</text>
<text text-anchor="start" x="242.75" y="-1278.2" font-family="Noto Sans Mono CJK KR" font-size="11.00" fill="#d4d4d4"> &#160;&#160;&#160;result = chat.invoke(</text>
<text text-anchor="start" x="242.75" y="-1266.2" font-family="Noto Sans Mono CJK KR" font-size="11.00" fill="#d4d4d4"> &#160;&#160;&#160;&#160;&#160;&#160;&#160;{&quot;messages&quot;: [{&quot;role&quot;: &quot;user&quot;, &quot;content&quot;: text}]},</text>
<text text-anchor="start" x="242.75" y="-1254.2" font-family="Noto Sans Mono CJK KR" font-size="11.00" fill="#d4d4d4"> &#160;&#160;&#160;&#160;&#160;&#160;&#160;config=config,</text>
<text text-anchor="start" x="242.75" y="-1242.2" font-family="Noto Sans Mono CJK KR" font-size="11.00" fill="#d4d4d4"> &#160;&#160;&#160;)</text>
<text text-anchor="start" x="242.75" y="-1230.2" font-family="Noto Sans Mono CJK KR" font-size="11.00" fill="#d4d4d4"> &#160;&#160;&#160;return result[&quot;messages&quot;][&#45;1].content</text>
</g>
<!-- Config&#45;&gt;Ask -->
<g id="edge1" class="edge">
<title>Config&#45;&gt;Ask</title>
<path fill="none" stroke="#374151" stroke-width="1.6" d="M403.25,-1404.86C403.25,-1404.86 403.25,-1354.05 403.25,-1354.05"/>
<polygon fill="#374151" stroke="#374151" stroke-width="1.6" points="406.05,-1354.05 403.25,-1346.05 400.45,-1354.05 406.05,-1354.05"/>
<text text-anchor="middle" x="442.75" y="-1373" font-family="Noto Sans CJK KR" font-size="10.00" fill="#111827">동일 config 재사용</text>
</g>
<!-- CallSite -->
<g id="node3" class="node">
<title>CallSite</title>
<path fill="#1e1e1e" stroke="#ce9178" stroke-width="2" d="M566.75,-1159C566.75,-1159 239.75,-1159 239.75,-1159 233.75,-1159 227.75,-1153 227.75,-1147 227.75,-1147 227.75,-1135 227.75,-1135 227.75,-1129 233.75,-1123 239.75,-1123 239.75,-1123 566.75,-1123 566.75,-1123 572.75,-1123 578.75,-1129 578.75,-1135 578.75,-1135 578.75,-1147 578.75,-1147 578.75,-1153 572.75,-1159 566.75,-1159"/>
<text text-anchor="start" x="240.75" y="-1138.2" font-family="Noto Sans Mono CJK KR" font-size="11.00" fill="#ce9178">print(ask(&quot;방금 안내한 절차를 불렛포인트로 다시 정리해 주세요.&quot;))</text>
</g>
<!-- Ask&#45;&gt;CallSite -->
<g id="edge2" class="edge">
<title>Ask&#45;&gt;CallSite</title>
<path fill="none" stroke="#374151" stroke-width="1.6" d="M403.25,-1217.69C403.25,-1217.69 403.25,-1167.26 403.25,-1167.26"/>
<polygon fill="#374151" stroke="#374151" stroke-width="1.6" points="406.05,-1167.26 403.25,-1159.26 400.45,-1167.26 406.05,-1167.26"/>
<text text-anchor="middle" x="439.75" y="-1186" font-family="Noto Sans CJK KR" font-size="10.00" fill="#111827">두 번째 ask(text)</text>
</g>
<!-- Invoke -->
<g id="node5" class="node">
<title>Invoke</title>
<path fill="#1e1e1e" stroke="#ce9178" stroke-width="2" d="M546.25,-1052C546.25,-1052 260.25,-1052 260.25,-1052 254.25,-1052 248.25,-1046 248.25,-1040 248.25,-1040 248.25,-998 248.25,-998 248.25,-992 254.25,-986 260.25,-986 260.25,-986 546.25,-986 546.25,-986 552.25,-986 558.25,-992 558.25,-998 558.25,-998 558.25,-1040 558.25,-1040 558.25,-1046 552.25,-1052 546.25,-1052"/>
<text text-anchor="start" x="261.25" y="-1034.2" font-family="Noto Sans Mono CJK KR" font-size="11.00" fill="#ce9178">chat.invoke(</text>
<text text-anchor="start" x="261.25" y="-1022.2" font-family="Noto Sans Mono CJK KR" font-size="11.00" fill="#ce9178"> &#160;&#160;&#160;{&quot;messages&quot;: [{&quot;role&quot;: &quot;user&quot;, &quot;content&quot;: text}]},</text>
<text text-anchor="start" x="261.25" y="-1010.2" font-family="Noto Sans Mono CJK KR" font-size="11.00" fill="#ce9178"> &#160;&#160;&#160;config=config,</text>
<text text-anchor="start" x="261.25" y="-998.2" font-family="Noto Sans Mono CJK KR" font-size="11.00" fill="#ce9178">)</text>
</g>
<!-- CallSite&#45;&gt;Invoke -->
<g id="edge4" class="edge">
<title>CallSite&#45;&gt;Invoke</title>
<path fill="none" stroke="#374151" stroke-width="2.4" d="M403.25,-1123C403.25,-1123 403.25,-1060.28 403.25,-1060.28"/>
<polygon fill="#374151" stroke="#374151" stroke-width="2.4" points="406.05,-1060.28 403.25,-1052.28 400.45,-1060.28 406.05,-1060.28"/>
<text text-anchor="middle" x="436.25" y="-1091" font-family="Noto Sans CJK KR" font-size="10.00" fill="#111827">새 user2만 전달</text>
</g>
<!-- Before -->
<g id="node4" class="node">
<title>Before</title>
<path fill="#1e1e1e" stroke="#dcdcaa" stroke-width="2" d="M757.75,-1064C757.75,-1064 602.75,-1064 602.75,-1064 596.75,-1064 590.75,-1058 590.75,-1052 590.75,-1052 590.75,-986 590.75,-986 590.75,-980 596.75,-974 602.75,-974 602.75,-974 757.75,-974 757.75,-974 763.75,-974 769.75,-980 769.75,-986 769.75,-986 769.75,-1052 769.75,-1052 769.75,-1058 763.75,-1064 757.75,-1064"/>
<text text-anchor="start" x="603.75" y="-1046.2" font-family="Noto Sans Mono CJK KR" font-size="11.00" fill="#dcdcaa">첫 호출 뒤 저장된 checkpoint</text>
<text text-anchor="start" x="603.75" y="-1034.2" font-family="Noto Sans Mono CJK KR" font-size="11.00" fill="#dcdcaa">thread_id = bank&#45;account&#45;demo</text>
<text text-anchor="start" x="603.75" y="-1022.2" font-family="Noto Sans Mono CJK KR" font-size="11.00" fill="#dcdcaa">messages = [</text>
<text text-anchor="start" x="603.75" y="-1010.2" font-family="Noto Sans Mono CJK KR" font-size="11.00" fill="#dcdcaa"> &#160;&#160;&#160;user1: 계좌 개설 질문,</text>
<text text-anchor="start" x="603.75" y="-998.2" font-family="Noto Sans Mono CJK KR" font-size="11.00" fill="#dcdcaa"> &#160;&#160;&#160;ai1: 첫 답변</text>
<text text-anchor="start" x="603.75" y="-986.2" font-family="Noto Sans Mono CJK KR" font-size="11.00" fill="#dcdcaa">]</text>
</g>
<!-- Restore -->
<g id="node6" class="node">
<title>Restore</title>
<path fill="#1e1e1e" stroke="#dcdcaa" stroke-width="2" d="M653.75,-915C653.75,-915 430.75,-915 430.75,-915 424.75,-915 418.75,-909 418.75,-903 418.75,-903 418.75,-873 418.75,-873 418.75,-867 424.75,-861 430.75,-861 430.75,-861 653.75,-861 653.75,-861 659.75,-861 665.75,-867 665.75,-873 665.75,-873 665.75,-903 665.75,-903 665.75,-909 659.75,-915 653.75,-915"/>
<text text-anchor="start" x="431.75" y="-897.2" font-family="Noto Sans Mono CJK KR" font-size="11.00" fill="#dcdcaa">InMemorySaver</text>
<text text-anchor="start" x="431.75" y="-885.2" font-family="Noto Sans Mono CJK KR" font-size="11.00" fill="#dcdcaa">같은 thread_id → 직전 checkpoint 자동 복원</text>
<text text-anchor="start" x="431.75" y="-873.2" font-family="Noto Sans Mono CJK KR" font-size="11.00" fill="#dcdcaa">[user1, ai1]</text>
</g>
<!-- Before&#45;&gt;Restore -->
<g id="edge3" class="edge">
<title>Before&#45;&gt;Restore</title>
<path fill="none" stroke="#374151" stroke-width="1.6" stroke-dasharray="5,2" d="M628.25,-973.92C628.25,-973.92 628.25,-923.19 628.25,-923.19"/>
<polygon fill="#374151" stroke="#374151" stroke-width="1.6" points="631.05,-923.19 628.25,-915.19 625.45,-923.19 631.05,-923.19"/>
<text text-anchor="middle" x="733.25" y="-942" font-family="Noto Sans CJK KR" font-size="10.00" fill="#111827">직전 호출에서 저장된 상태</text>
</g>
<!-- Invoke&#45;&gt;Restore -->
<g id="edge5" class="edge">
<title>Invoke&#45;&gt;Restore</title>
<path fill="none" stroke="#374151" stroke-width="1.6" d="M488.5,-985.94C488.5,-985.94 488.5,-923.3 488.5,-923.3"/>
<polygon fill="#374151" stroke="#374151" stroke-width="1.6" points="491.3,-923.3 488.5,-915.3 485.7,-923.3 491.3,-923.3"/>
<text text-anchor="middle" x="523.75" y="-942" font-family="Noto Sans CJK KR" font-size="10.00" fill="#111827">thread_id로 lookup</text>
</g>
<!-- MergeUser -->
<g id="node7" class="node">
<title>MergeUser</title>
<path fill="#1e1e1e" stroke="#c586c0" stroke-width="2" d="M695.25,-802C695.25,-802 389.25,-802 389.25,-802 383.25,-802 377.25,-796 377.25,-790 377.25,-790 377.25,-723 377.25,-723 377.25,-717 383.25,-711 389.25,-711 389.25,-711 695.25,-711 695.25,-711 701.25,-711 707.25,-717 707.25,-723 707.25,-723 707.25,-790 707.25,-790 707.25,-796 701.25,-802 695.25,-802"/>
<text text-anchor="start" x="390.25" y="-784.2" font-family="Noto Sans Mono CJK KR" font-size="11.00" fill="#c586c0">MessagesState reducer</text>
<text text-anchor="start" x="390.25" y="-772.2" font-family="Noto Sans Mono CJK KR" font-size="11.00" fill="#c586c0">복원된 [user1, ai1]</text>
<text text-anchor="start" x="390.25" y="-760.2" font-family="Noto Sans Mono CJK KR" font-size="11.00" fill="#c586c0">+ 새 입력 [user2]</text>
<text text-anchor="start" x="390.25" y="-748.2" font-family="Noto Sans Mono CJK KR" font-size="11.00" fill="#c586c0">→ [user1, ai1, user2]</text>
<text text-anchor="start" x="390.25" y="-723.2" font-family="Noto Sans Mono CJK KR" font-size="11.00" fill="#c586c0">user2 = &quot;방금 안내한 절차를 불렛포인트로 다시 정리해 주세요.&quot;</text>
</g>
<!-- Restore&#45;&gt;MergeUser -->
<g id="edge6" class="edge">
<title>Restore&#45;&gt;MergeUser</title>
<path fill="none" stroke="#374151" stroke-width="2.4" d="M542.25,-860.75C542.25,-860.75 542.25,-810.09 542.25,-810.09"/>
<polygon fill="#374151" stroke="#374151" stroke-width="2.4" points="545.05,-810.09 542.25,-802.09 539.45,-810.09 545.05,-810.09"/>
<text text-anchor="middle" x="595.75" y="-829" font-family="Noto Sans CJK KR" font-size="10.00" fill="#111827">복원 상태 + 이번 입력 병합</text>
</g>
<!-- CallModel -->
<g id="node8" class="node">
<title>CallModel</title>
<path fill="#1e1e1e" stroke="#ce9178" stroke-width="2" d="M720.75,-652C720.75,-652 363.75,-652 363.75,-652 357.75,-652 351.75,-646 351.75,-640 351.75,-640 351.75,-574 351.75,-574 351.75,-568 357.75,-562 363.75,-562 363.75,-562 720.75,-562 720.75,-562 726.75,-562 732.75,-568 732.75,-574 732.75,-574 732.75,-640 732.75,-640 732.75,-646 726.75,-652 720.75,-652"/>
<text text-anchor="start" x="364.75" y="-634.2" font-family="Noto Sans Mono CJK KR" font-size="11.00" fill="#ce9178">def call_model(state: MessagesState):</text>
<text text-anchor="start" x="364.75" y="-622.2" font-family="Noto Sans Mono CJK KR" font-size="11.00" fill="#ce9178"> &#160;&#160;&#160;response = model.invoke(</text>
<text text-anchor="start" x="364.75" y="-610.2" font-family="Noto Sans Mono CJK KR" font-size="11.00" fill="#ce9178"> &#160;&#160;&#160;&#160;&#160;&#160;&#160;[SystemMessage(content=SYSTEM_PROMPT), *state[&quot;messages&quot;]]</text>
<text text-anchor="start" x="364.75" y="-598.2" font-family="Noto Sans Mono CJK KR" font-size="11.00" fill="#ce9178"> &#160;&#160;&#160;)</text>
<text text-anchor="start" x="364.75" y="-586.2" font-family="Noto Sans Mono CJK KR" font-size="11.00" fill="#ce9178"> &#160;&#160;&#160;# MessagesState의 reducer가 기존 목록 뒤에 이 메시지를 추가합니다.</text>
<text text-anchor="start" x="364.75" y="-574.2" font-family="Noto Sans Mono CJK KR" font-size="11.00" fill="#ce9178"> &#160;&#160;&#160;return {&quot;messages&quot;: [response]}</text>
</g>
<!-- MergeUser&#45;&gt;CallModel -->
<g id="edge7" class="edge">
<title>MergeUser&#45;&gt;CallModel</title>
<path fill="none" stroke="#374151" stroke-width="1.6" d="M542.25,-710.83C542.25,-710.83 542.25,-660.13 542.25,-660.13"/>
<polygon fill="#374151" stroke="#374151" stroke-width="1.6" points="545.05,-660.13 542.25,-652.13 539.45,-660.13 545.05,-660.13"/>
<text text-anchor="middle" x="577.25" y="-679" font-family="Noto Sans CJK KR" font-size="10.00" fill="#111827">model 노드 실행</text>
</g>
<!-- ModelInput -->
<g id="node9" class="node">
<title>ModelInput</title>
<path fill="#1e1e1e" stroke="#555555" stroke-width="2" d="M651.25,-503C651.25,-503 433.25,-503 433.25,-503 427.25,-503 421.25,-497 421.25,-491 421.25,-491 421.25,-376 421.25,-376 421.25,-370 427.25,-364 433.25,-364 433.25,-364 651.25,-364 651.25,-364 657.25,-364 663.25,-370 663.25,-376 663.25,-376 663.25,-491 663.25,-491 663.25,-497 657.25,-503 651.25,-503"/>
<text text-anchor="start" x="434.25" y="-485.2" font-family="Noto Sans Mono CJK KR" font-size="11.00" fill="#d4d4d4">model.invoke([</text>
<text text-anchor="start" x="434.25" y="-473.2" font-family="Noto Sans Mono CJK KR" font-size="11.00" fill="#d4d4d4"> &#160;&#160;&#160;SystemMessage(content=SYSTEM_PROMPT),</text>
<text text-anchor="start" x="434.25" y="-461.2" font-family="Noto Sans Mono CJK KR" font-size="11.00" fill="#d4d4d4"> &#160;&#160;&#160;*state[&quot;messages&quot;]</text>
<text text-anchor="start" x="434.25" y="-449.2" font-family="Noto Sans Mono CJK KR" font-size="11.00" fill="#d4d4d4">])</text>
<text text-anchor="start" x="434.25" y="-424.2" font-family="Noto Sans Mono CJK KR" font-size="11.00" fill="#d4d4d4">실제 모델 입력 순서:</text>
<text text-anchor="start" x="434.25" y="-412.2" font-family="Noto Sans Mono CJK KR" font-size="11.00" fill="#d4d4d4">1) system</text>
<text text-anchor="start" x="434.25" y="-400.2" font-family="Noto Sans Mono CJK KR" font-size="11.00" fill="#d4d4d4">2) user1</text>
<text text-anchor="start" x="434.25" y="-388.2" font-family="Noto Sans Mono CJK KR" font-size="11.00" fill="#d4d4d4">3) ai1</text>
<text text-anchor="start" x="434.25" y="-376.2" font-family="Noto Sans Mono CJK KR" font-size="11.00" fill="#d4d4d4">4) user2</text>
</g>
<!-- CallModel&#45;&gt;ModelInput -->
<g id="edge8" class="edge">
<title>CallModel&#45;&gt;ModelInput</title>
<path fill="none" stroke="#374151" stroke-width="2.4" d="M542.25,-561.87C542.25,-561.87 542.25,-511.29 542.25,-511.29"/>
<polygon fill="#374151" stroke="#374151" stroke-width="2.4" points="545.05,-511.29 542.25,-503.29 539.45,-511.29 545.05,-511.29"/>
<text text-anchor="middle" x="623.75" y="-530" font-family="Noto Sans CJK KR" font-size="10.00" fill="#111827">전체 state[&quot;messages&quot;]를 모델에 전달</text>
</g>
<!-- MergeAI -->
<g id="node10" class="node">
<title>MergeAI</title>
<path fill="#1e1e1e" stroke="#c586c0" stroke-width="2" d="M624.75,-305C624.75,-305 459.75,-305 459.75,-305 453.75,-305 447.75,-299 447.75,-293 447.75,-293 447.75,-238 447.75,-238 447.75,-232 453.75,-226 459.75,-226 459.75,-226 624.75,-226 624.75,-226 630.75,-226 636.75,-232 636.75,-238 636.75,-238 636.75,-293 636.75,-293 636.75,-299 630.75,-305 624.75,-305"/>
<text text-anchor="start" x="460.75" y="-287.2" font-family="Noto Sans Mono CJK KR" font-size="11.00" fill="#c586c0">return {&quot;messages&quot;: [response]}</text>
<text text-anchor="start" x="460.75" y="-262.2" font-family="Noto Sans Mono CJK KR" font-size="11.00" fill="#c586c0">MessagesState reducer:</text>
<text text-anchor="start" x="460.75" y="-250.2" font-family="Noto Sans Mono CJK KR" font-size="11.00" fill="#c586c0">[user1, ai1, user2] + [ai2]</text>
<text text-anchor="start" x="460.75" y="-238.2" font-family="Noto Sans Mono CJK KR" font-size="11.00" fill="#c586c0">→ [user1, ai1, user2, ai2]</text>
</g>
<!-- ModelInput&#45;&gt;MergeAI -->
<g id="edge9" class="edge">
<title>ModelInput&#45;&gt;MergeAI</title>
<path fill="none" stroke="#374151" stroke-width="1.6" d="M542.25,-363.71C542.25,-363.71 542.25,-313.07 542.25,-313.07"/>
<polygon fill="#374151" stroke="#374151" stroke-width="1.6" points="545.05,-313.07 542.25,-305.07 539.45,-313.07 545.05,-313.07"/>
<text text-anchor="middle" x="573.25" y="-332" font-family="Noto Sans CJK KR" font-size="10.00" fill="#111827">response 생성</text>
</g>
<!-- Save -->
<g id="node11" class="node">
<title>Save</title>
<path fill="#1e1e1e" stroke="#dcdcaa" stroke-width="2" d="M638.25,-167C638.25,-167 446.25,-167 446.25,-167 440.25,-167 434.25,-161 434.25,-155 434.25,-155 434.25,-125 434.25,-125 434.25,-119 440.25,-113 446.25,-113 446.25,-113 638.25,-113 638.25,-113 644.25,-113 650.25,-119 650.25,-125 650.25,-125 650.25,-155 650.25,-155 650.25,-161 644.25,-167 638.25,-167"/>
<text text-anchor="start" x="447.25" y="-149.2" font-family="Noto Sans Mono CJK KR" font-size="11.00" fill="#dcdcaa">InMemorySaver</text>
<text text-anchor="start" x="447.25" y="-137.2" font-family="Noto Sans Mono CJK KR" font-size="11.00" fill="#dcdcaa">같은 thread_id에 최신 checkpoint 저장</text>
<text text-anchor="start" x="447.25" y="-125.2" font-family="Noto Sans Mono CJK KR" font-size="11.00" fill="#dcdcaa">messages = [user1, ai1, user2, ai2]</text>
</g>
<!-- MergeAI&#45;&gt;Save -->
<g id="edge10" class="edge">
<title>MergeAI&#45;&gt;Save</title>
<path fill="none" stroke="#374151" stroke-width="2.4" d="M542.25,-225.79C542.25,-225.79 542.25,-175.15 542.25,-175.15"/>
<polygon fill="#374151" stroke="#374151" stroke-width="2.4" points="545.05,-175.15 542.25,-167.15 539.45,-175.15 545.05,-175.15"/>
<text text-anchor="middle" x="595.75" y="-194" font-family="Noto Sans CJK KR" font-size="10.00" fill="#111827">ai2까지 병합된 state 저장</text>
</g>
<!-- Return -->
<g id="node12" class="node">
<title>Return</title>
<path fill="#1e1e1e" stroke="#6a9955" stroke-width="2" d="M622.25,-54C622.25,-54 462.25,-54 462.25,-54 456.25,-54 450.25,-48 450.25,-42 450.25,-42 450.25,-12 450.25,-12 450.25,-6 456.25,0 462.25,0 462.25,0 622.25,0 622.25,0 628.25,0 634.25,-6 634.25,-12 634.25,-12 634.25,-42 634.25,-42 634.25,-48 628.25,-54 622.25,-54"/>
<text text-anchor="start" x="463.25" y="-36.2" font-family="Noto Sans Mono CJK KR" font-size="11.00" fill="#b5cea8">result[&quot;messages&quot;][&#45;1].content</text>
<text text-anchor="start" x="463.25" y="-24.2" font-family="Noto Sans Mono CJK KR" font-size="11.00" fill="#b5cea8">→ ai2.content</text>
<text text-anchor="start" x="463.25" y="-12.2" font-family="Noto Sans Mono CJK KR" font-size="11.00" fill="#b5cea8">→ 이전 대화를 알고 요약 가능</text>
</g>
<!-- Save&#45;&gt;Return -->
<g id="edge11" class="edge">
<title>Save&#45;&gt;Return</title>
<path fill="none" stroke="#374151" stroke-width="1.6" d="M542.25,-112.93C542.25,-112.93 542.25,-62.24 542.25,-62.24"/>
<polygon fill="#374151" stroke="#374151" stroke-width="1.6" points="545.05,-62.24 542.25,-54.24 539.45,-62.24 545.05,-62.24"/>
<text text-anchor="middle" x="583.75" y="-81" font-family="Noto Sans CJK KR" font-size="10.00" fill="#111827">chat.invoke result</text>
</g>
</g>
</svg>
